<?xml version="1.0" standalone="no"?>
<!DOCTYPE svg PUBLIC "-//W3C//DTD SVG 20010904//EN"
 "http://www.w3.org/TR/2001/REC-SVG-20010904/DTD/svg10.dtd">
<svg version="1.0" xmlns="http://www.w3.org/2000/svg"
 width="1155.000000pt" height="978.000000pt" viewBox="0 0 1155.000000 978.000000"
 preserveAspectRatio="xMidYMid meet">

<g transform="translate(0.000000,978.000000) scale(0.100000,-0.100000)"
fill="#000000" stroke="none">
<path d="M7190 8424 c-349 -8 -653 -16 -675 -19 -22 -2 -64 -4 -92 -4 -46 -1
-53 -4 -53 -21 0 -21 15 -27 25 -10 3 5 13 6 23 3 23 -9 53 -43 47 -54 -3 -4
3 -6 14 -4 11 2 22 -3 25 -11 3 -8 19 -14 36 -14 16 0 30 -4 30 -10 0 -5 -8
-7 -17 -3 -11 4 -9 -2 7 -15 21 -17 26 -18 33 -6 13 23 28 16 23 -11 -4 -21
-1 -25 19 -25 15 0 26 -7 30 -20 3 -11 13 -20 21 -20 8 0 17 -6 20 -14 3 -8
11 -13 19 -10 7 3 15 -2 18 -10 4 -9 14 -16 22 -16 9 0 14 -4 10 -10 -3 -5 8
-16 24 -24 16 -9 32 -26 34 -38 l4 -23 8 22 c4 13 11 20 16 17 5 -3 6 -10 3
-16 -5 -7 -1 -9 9 -5 11 4 18 -3 26 -24 5 -16 15 -29 21 -29 6 0 9 -4 6 -9 -3
-5 3 -11 15 -14 17 -5 18 -3 8 11 -7 9 6 -1 29 -23 24 -22 38 -41 32 -43 -5
-2 -10 -9 -10 -14 0 -6 3 -9 6 -5 9 9 44 -26 44 -44 0 -14 12 -18 63 -23 229
-19 355 -26 522 -31 432 -12 688 -60 940 -174 223 -102 434 -293 559 -508 65
-113 83 -149 114 -230 73 -189 106 -325 143 -598 16 -119 17 -545 0 -655 -38
-259 -65 -367 -133 -534 -228 -557 -730 -865 -1416 -866 -156 -1 -533 -16
-667 -28 -80 -7 -80 -7 -90 -40 -8 -29 -34 -41 -27 -13 1 7 -2 10 -8 6 -6 -3
-8 -10 -6 -14 3 -4 -6 -19 -20 -34 -14 -15 -22 -27 -18 -27 4 0 -1 -9 -10 -19
-10 -11 -23 -18 -30 -15 -7 3 -18 -8 -26 -23 -7 -16 -15 -23 -17 -15 -7 18
-33 14 -33 -5 0 -15 2 -16 10 -3 5 8 10 10 10 4 0 -15 -48 -46 -60 -39 -10 6
-32 -29 -23 -38 3 -4 -6 -12 -21 -18 -14 -7 -26 -17 -26 -22 0 -6 -3 -7 -7 -4
-3 4 -12 -1 -20 -11 -8 -9 -11 -10 -7 -3 5 9 -5 6 -24 -7 -40 -29 -48 -42 -25
-42 15 0 16 -2 3 -10 -27 -17 -42 -12 -35 13 4 15 3 18 -3 8 -5 -7 -12 -9 -14
-5 -3 5 -4 4 -2 -2 3 -16 -31 -66 -39 -57 -4 4 -14 -3 -23 -15 -8 -12 -19 -20
-24 -17 -11 7 -40 -5 -40 -15 0 -5 18 -16 40 -26 22 -10 40 -21 40 -26 0 -4
10 -8 23 -8 13 0 27 -4 33 -9 5 -6 20 -12 34 -14 14 -3 43 -10 65 -15 22 -6
216 -14 430 -17 536 -9 606 -12 639 -24 22 -9 40 -8 81 4 29 8 85 15 124 15
107 0 264 24 461 70 196 45 442 151 619 267 302 197 518 445 685 788 172 351
256 748 256 1211 1 968 -327 1704 -945 2121 -108 73 -343 188 -462 227 -214
69 -346 97 -578 122 -208 23 -210 23 -875 8z m-480 -234 c0 -5 -7 -7 -15 -4
-8 4 -15 8 -15 10 0 2 7 4 15 4 8 0 15 -4 15 -10z"/>
<path d="M775 8423 c-11 -3 -60 -18 -108 -34 -197 -65 -349 -204 -440 -401
-69 -148 -75 -362 -17 -578 6 -19 28 -111 51 -205 22 -93 62 -260 89 -370 27
-110 72 -294 100 -410 59 -245 108 -442 184 -755 30 -124 80 -328 111 -455 31
-126 83 -340 116 -475 33 -135 71 -292 85 -350 51 -209 82 -289 160 -406 224
-338 677 -481 1090 -344 111 36 294 148 359 220 10 11 30 20 46 20 22 0 26 4
22 19 -5 20 44 121 59 121 4 0 8 4 8 10 0 5 15 42 34 82 39 84 45 106 53 168
3 25 9 49 14 55 5 5 9 18 9 30 0 12 4 25 9 30 6 6 11 30 12 55 1 25 7 51 12
57 5 7 7 24 4 39 -2 14 2 31 10 39 20 21 20 25 -2 38 -22 13 -26 14 -55 16
-20 1 -23 19 -5 34 6 6 6 10 -3 14 -6 2 -10 9 -6 14 3 5 -2 9 -10 9 -8 0 -18
4 -21 10 -3 5 0 7 8 4 8 -3 17 1 20 10 5 12 0 13 -25 5 -23 -6 -29 -6 -21 2 8
8 8 20 3 34 -5 13 -6 26 -3 29 4 3 -1 6 -11 6 -9 0 -14 -4 -11 -10 3 -6 -1 -7
-9 -4 -9 3 -16 10 -16 16 0 5 5 6 10 3 11 -7 13 9 4 43 -4 13 -17 25 -32 29
-25 6 -25 6 -4 14 12 5 22 13 22 20 0 6 -7 8 -16 5 -14 -5 -15 -4 -5 8 9 11 9
16 0 22 -8 5 -9 3 -4 -6 5 -9 4 -11 -3 -6 -7 4 -12 18 -12 32 0 18 -5 24 -17
22 -12 -2 -17 4 -17 23 -1 15 -10 36 -20 48 -14 16 -17 24 -9 32 16 16 5 39
-14 32 -11 -4 -14 -2 -9 6 4 6 2 18 -4 26 -6 8 -9 23 -6 33 4 11 0 24 -9 32
-9 7 -13 21 -10 31 4 11 2 19 -5 19 -6 0 -8 5 -3 13 4 6 8 28 9 47 2 30 1 32
-7 12 -4 -12 -6 -29 -3 -37 4 -9 0 -15 -8 -15 -7 0 -20 -15 -27 -32 -19 -46
-72 -191 -75 -204 -1 -7 -7 -18 -14 -26 -6 -8 -9 -18 -5 -21 3 -4 1 -12 -4
-19 -10 -12 -21 -42 -99 -271 -19 -54 -42 -109 -51 -123 -9 -14 -20 -46 -24
-72 -20 -128 -87 -227 -185 -273 -40 -18 -67 -23 -144 -23 -84 0 -101 3 -146
26 -51 27 -104 82 -122 129 -13 32 -40 135 -68 254 -9 39 -20 84 -25 100 -5
17 -15 59 -23 95 -9 36 -49 202 -90 370 -94 382 -197 809 -282 1160 -19 80
-39 161 -44 180 -5 19 -21 85 -35 145 -30 127 -39 165 -54 220 -18 65 -132
546 -161 675 -6 30 -10 77 -8 105 3 43 7 52 35 71 27 18 51 22 152 26 105 4
127 9 176 33 112 54 177 154 179 273 0 37 -5 87 -12 112 -17 60 -72 134 -123
166 -76 48 -110 54 -278 53 -86 -1 -165 -3 -176 -6z m2055 -3818 c-7 -8 -16
-15 -21 -15 -5 0 -9 7 -9 15 0 9 9 15 21 15 18 0 19 -2 9 -15z"/>
<path d="M3623 8393 c-92 -27 -183 -131 -183 -209 0 -18 -4 -36 -10 -39 -5 -3
-10 -18 -10 -33 l1 -27 19 24 c11 12 17 27 14 32 -5 9 9 13 34 10 7 -1 12 9
12 22 0 28 28 57 38 40 11 -17 50 3 66 36 9 16 21 33 27 37 7 4 9 3 5 -4 -11
-18 11 -23 27 -7 9 8 21 15 27 15 6 0 15 11 20 25 5 14 14 25 20 25 6 0 9 -4
6 -8 -2 -4 -1 -14 5 -22 7 -12 9 -10 9 7 0 12 7 26 16 31 9 5 15 13 15 17 -1
5 13 9 31 9 17 1 33 7 35 14 4 9 -13 12 -64 12 -37 0 -77 2 -88 5 -11 2 -43
-3 -72 -12z"/>
<path d="M3515 8190 c-3 -5 -1 -10 4 -10 6 0 11 5 11 10 0 6 -2 10 -4 10 -3 0
-8 -4 -11 -10z"/>
<path d="M11005 7293 c-104 -130 -255 -208 -438 -228 -72 -8 -87 -13 -81 -29
12 -31 151 -53 235 -38 92 17 167 59 241 133 52 52 70 79 84 122 11 36 14 59
7 71 -8 14 -15 10 -48 -31z"/>
<path d="M11145 6390 c-3 -5 -2 -10 4 -10 12 0 26 -80 23 -138 -5 -94 -96
-210 -187 -238 -89 -26 -114 -27 -188 -3 -57 18 -80 32 -122 76 -29 29 -57 53
-63 53 -12 0 -22 -59 -22 -140 0 -66 27 -159 56 -191 8 -8 14 -19 14 -24 0
-17 73 -96 117 -126 90 -62 237 -87 344 -59 111 30 239 132 284 226 40 85 59
227 36 272 -5 9 -21 49 -36 89 -30 81 -85 151 -154 195 -45 28 -94 37 -106 18z"/>
<path d="M2556 5204 c-8 -21 -8 -34 2 -34 4 0 9 11 10 25 2 28 -3 32 -12 9z"/>
<path d="M11020 4583 c-22 -41 -124 -154 -172 -190 -29 -21 -100 -54 -162 -75
-46 -16 -87 -21 -166 -21 -58 0 -116 3 -128 7 -34 11 -28 -19 11 -48 53 -41
145 -77 211 -83 231 -21 453 162 459 379 3 91 -16 102 -53 31z"/>
<path d="M10260 4559 c0 -5 5 -7 10 -4 6 3 10 8 10 11 0 2 -4 4 -10 4 -5 0
-10 -5 -10 -11z"/>
<path d="M377 3023 c-11 -10 -8 -43 3 -43 6 0 647 0 1425 0 778 0 1420 0 1426
0 6 0 9 10 7 23 l-3 22 -1426 3 c-784 1 -1429 -1 -1432 -5z"/>
<path d="M7506 3013 c-4 -9 -3 -20 2 -25 12 -12 2843 -11 2855 1 5 5 7 17 4
25 -6 14 -147 16 -1431 16 -1320 0 -1424 -1 -1430 -17z"/>
<path d="M6766 2299 c-21 -5 -66 -24 -99 -41 -139 -74 -196 -227 -132 -354 44
-88 128 -140 355 -218 175 -61 229 -86 278 -130 51 -47 66 -82 60 -151 -6 -68
-43 -118 -113 -155 -64 -32 -208 -41 -281 -16 -74 25 -140 79 -186 152 -37 59
-44 65 -66 59 -50 -12 -92 -34 -92 -48 0 -26 95 -151 147 -193 76 -62 147 -86
276 -92 178 -8 298 29 378 116 59 64 82 122 83 212 2 166 -91 247 -404 356
-232 80 -302 124 -316 200 -23 125 88 211 260 202 119 -7 210 -60 257 -150 10
-20 23 -39 28 -42 5 -4 32 -1 60 5 60 13 64 28 26 92 -54 92 -162 172 -265
196 -54 13 -200 12 -254 0z"/>
<path d="M8521 2294 c-250 -67 -385 -330 -351 -682 17 -167 66 -284 155 -373
90 -90 192 -129 343 -129 116 0 209 23 274 67 28 18 54 33 58 33 5 0 10 -19
12 -42 3 -43 3 -43 46 -46 74 -5 72 -12 72 282 0 190 -3 265 -12 274 -9 9 -69
12 -209 12 -220 0 -223 -1 -217 -67 l3 -38 134 -3 c86 -2 140 -7 149 -15 20
-16 8 -148 -19 -204 -44 -91 -145 -143 -279 -143 -108 0 -178 27 -245 94 -88
88 -125 206 -125 396 0 236 70 389 208 457 51 25 68 28 157 28 86 0 106 -3
145 -24 66 -34 97 -67 142 -150 l41 -73 49 6 c59 8 78 15 78 28 0 6 -14 40
-32 76 -62 125 -172 215 -296 241 -73 15 -216 13 -281 -5z"/>
<path d="M4295 2289 c-3 -8 -4 -273 -3 -589 l3 -575 225 1 c182 0 238 4 290
18 98 27 168 65 236 128 129 121 189 315 163 530 -30 251 -161 409 -394 475
-74 21 -513 31 -520 12z m395 -108 c197 -21 299 -102 361 -286 10 -27 14 -89
14 -190 -1 -130 -4 -157 -23 -205 -53 -133 -125 -204 -247 -242 -58 -18 -96
-22 -215 -22 l-145 -1 -3 469 c-2 369 0 471 10 478 17 10 143 10 248 -1z"/>
<path d="M5503 2293 c-20 -7 -19 -1146 1 -1162 9 -8 123 -10 402 -9 l389 3 0
50 0 50 -325 5 -325 5 -3 223 -2 222 213 0 c231 0 237 1 237 55 0 55 1 54
-230 57 l-215 3 0 195 0 195 298 2 c164 0 304 4 312 7 18 7 20 77 3 94 -9 9
-106 12 -377 11 -202 0 -372 -3 -378 -6z"/>
<path d="M7715 2288 c-3 -7 -4 -272 -3 -588 l3 -575 65 0 65 0 0 585 0 585
-63 3 c-44 2 -64 -1 -67 -10z"/>
<path d="M9472 2288 c-9 -9 -12 -151 -12 -579 0 -478 2 -568 14 -578 8 -7 36
-11 63 -9 l48 3 3 505 c1 277 6 508 11 513 5 5 149 -217 326 -500 175 -279
323 -511 329 -515 13 -9 78 -10 100 -2 14 6 16 66 16 585 l0 579 -23 6 c-13 3
-41 4 -63 2 l-39 -3 -3 -442 c-1 -264 -6 -443 -11 -443 -6 0 -36 42 -67 93
-268 433 -489 783 -498 789 -19 13 -181 9 -194 -4z"/>
<path d="M433 2255 c-31 -31 -34 -40 -30 -73 7 -52 17 -94 27 -117 5 -11 11
-33 14 -50 8 -49 17 -89 24 -105 3 -8 7 -26 8 -40 1 -14 7 -43 14 -65 12 -41
21 -78 39 -150 5 -22 15 -58 21 -80 6 -22 13 -57 16 -77 2 -21 11 -57 19 -80
8 -24 15 -53 15 -65 0 -12 5 -25 10 -28 6 -3 10 -19 10 -34 0 -16 7 -42 15
-57 8 -16 15 -36 15 -45 0 -51 126 -87 197 -57 36 15 73 48 73 65 0 7 5 13 10
13 6 0 10 11 10 25 0 14 4 25 9 25 10 0 25 56 22 83 -1 9 3 17 8 17 6 0 11 14
11 30 0 17 5 30 10 30 6 0 10 14 10 30 0 17 5 30 10 30 6 0 10 7 10 16 0 9 12
53 26 98 93 288 102 287 199 -19 16 -49 32 -97 36 -105 4 -8 12 -33 18 -55 26
-100 45 -161 53 -169 4 -6 8 -18 8 -28 0 -10 4 -18 9 -18 5 0 13 -9 16 -21 4
-12 26 -29 52 -40 81 -35 167 -17 198 41 22 44 34 74 39 100 2 14 9 36 14 50
5 14 10 27 10 30 0 3 4 23 10 45 6 22 18 76 27 120 9 44 21 90 26 103 5 13 9
34 9 47 0 13 5 27 10 30 5 3 10 18 10 31 0 30 28 151 41 176 5 10 9 28 9 40 0
19 10 57 28 108 3 8 11 43 17 77 12 69 3 102 -39 135 -32 26 -106 24 -139 -4
-30 -27 -62 -132 -70 -233 -2 -16 -6 -37 -10 -45 -3 -8 -11 -35 -17 -60 -6
-25 -16 -63 -21 -85 -12 -48 -28 -128 -34 -170 -3 -16 -11 -52 -18 -80 -13
-45 -17 -50 -43 -50 -24 0 -30 5 -32 28 -2 15 -8 27 -13 27 -5 0 -9 13 -9 29
0 17 -4 33 -10 36 -5 3 -10 17 -10 30 0 13 -4 27 -10 30 -5 3 -10 14 -10 24 0
30 -36 145 -61 193 -5 10 -9 29 -9 43 0 14 -4 25 -9 25 -5 0 -11 12 -14 28
-14 71 -30 128 -38 136 -5 6 -9 16 -9 24 0 8 -14 32 -31 53 -29 36 -34 39 -82
39 -59 -1 -101 -29 -113 -74 -3 -15 -10 -29 -15 -32 -5 -3 -9 -14 -9 -25 0
-10 -4 -27 -9 -37 -12 -24 -41 -117 -41 -131 0 -7 -9 -31 -20 -53 -11 -23 -20
-52 -20 -64 0 -13 -5 -26 -10 -29 -6 -3 -10 -15 -10 -25 0 -22 -26 -106 -40
-132 -6 -10 -10 -31 -10 -47 0 -17 -4 -32 -9 -35 -4 -3 -11 -19 -15 -36 -5
-27 -10 -31 -32 -28 -21 2 -29 13 -45 58 -19 54 -23 71 -34 160 -4 25 -10 54
-14 65 -14 32 -43 156 -48 203 -3 23 -9 42 -15 42 -5 0 -8 10 -7 23 5 54 -14
126 -43 161 -27 33 -34 36 -80 36 -44 0 -54 -4 -85 -35z"/>
<path d="M2201 2261 l-31 -29 0 -521 c0 -519 0 -522 22 -551 26 -36 91 -49
137 -29 64 28 70 78 70 589 1 277 -3 448 -10 470 -16 54 -31 80 -46 80 -7 0
-13 5 -13 10 0 6 -22 10 -49 10 -40 0 -54 -5 -80 -29z"/>
<path d="M2767 2267 l-27 -23 -1 -537 c0 -574 -2 -545 49 -574 42 -25 107 -12
139 27 9 11 13 92 14 310 0 162 4 306 8 320 10 37 38 36 77 -1 19 -18 34 -36
34 -41 0 -4 12 -21 28 -37 39 -42 72 -82 72 -87 0 -5 12 -21 50 -63 38 -43 60
-71 60 -76 0 -3 8 -13 18 -23 9 -10 26 -31 37 -46 11 -16 25 -33 30 -40 14
-15 88 -108 97 -121 25 -36 96 -109 119 -121 51 -26 106 -14 141 30 16 19 18
64 18 545 l0 524 -32 29 c-44 39 -113 40 -152 2 -14 -15 -26 -34 -26 -43 0 -9
0 -143 0 -297 1 -288 -5 -334 -38 -334 -14 0 -72 52 -72 66 0 2 -8 12 -17 22
-10 11 -25 28 -33 38 -8 11 -32 40 -52 66 -21 25 -38 51 -38 56 0 5 -6 12 -13
15 -7 3 -26 24 -42 48 -17 24 -42 56 -57 71 -16 15 -28 32 -28 37 0 5 -4 11
-9 13 -8 3 -68 75 -151 181 -19 25 -49 54 -66 66 -42 29 -103 28 -137 -2z"/>
<path d="M4916 778 c-17 -23 -21 -48 -9 -48 10 0 63 52 63 62 0 17 -40 7 -54
-14z"/>
<path d="M690 704 c-38 -25 -50 -45 -50 -79 0 -39 26 -64 102 -100 75 -35 95
-57 82 -93 -20 -57 -103 -61 -139 -6 -8 13 -22 24 -30 24 -27 0 -16 -35 23
-73 31 -30 45 -37 78 -37 84 0 142 111 89 170 -11 12 -45 33 -75 47 -89 39
-111 71 -72 106 29 26 67 21 103 -14 20 -20 35 -27 41 -21 24 24 -51 92 -102
92 -14 0 -37 -7 -50 -16z"/>
<path d="M989 697 c-50 -33 -69 -79 -69 -165 0 -84 20 -134 69 -169 61 -45
141 -14 176 70 21 50 20 163 -3 207 -20 41 -75 80 -112 80 -15 0 -42 -10 -61
-23z m107 -32 c34 -23 47 -67 42 -150 -3 -65 -7 -78 -30 -102 -35 -35 -80 -35
-114 -1 -47 46 -46 197 1 244 27 27 70 31 101 9z"/>
<path d="M2320 702 c-45 -22 -71 -69 -77 -140 -7 -76 10 -135 54 -183 47 -52
95 -55 146 -6 52 48 61 73 62 162 0 94 -23 142 -79 169 -43 20 -63 20 -106 -2z
m113 -52 c46 -55 45 -183 -2 -241 -23 -28 -81 -31 -109 -6 -37 33 -52 127 -32
196 23 82 96 108 143 51z"/>
<path d="M4240 702 c-56 -31 -75 -73 -75 -167 1 -89 14 -123 64 -167 47 -42
94 -39 142 10 62 64 77 177 34 265 -32 68 -102 93 -165 59z m113 -51 c59 -70
40 -231 -31 -260 -82 -34 -147 86 -112 208 23 81 96 108 143 52z"/>
<path d="M4855 711 l-40 -6 -3 -150 c-2 -82 0 -165 3 -182 l6 -33 100 0 c98 0
100 0 97 23 -3 20 -9 22 -83 27 l-80 5 0 60 0 60 47 3 c25 2 52 9 58 17 15 18
4 23 -60 27 l-45 3 -3 43 c-5 62 8 72 89 72 55 0 69 3 69 15 0 11 -11 15 -37
15 -21 0 -47 2 -58 4 -11 2 -38 1 -60 -3z"/>
<path d="M5555 711 c-53 -23 -77 -97 -44 -137 7 -9 46 -32 85 -50 39 -18 74
-40 78 -49 11 -29 7 -51 -14 -70 -32 -29 -76 -23 -114 14 -31 30 -56 35 -56
11 0 -5 18 -27 39 -49 33 -35 46 -41 80 -41 57 0 102 42 107 101 6 57 -7 73
-97 118 -87 43 -99 59 -76 95 25 38 75 36 111 -4 26 -30 46 -32 46 -6 0 7 -13
25 -28 40 -31 29 -84 41 -117 27z"/>
<path d="M6510 702 c-48 -24 -80 -89 -80 -163 0 -74 15 -116 58 -161 50 -52
98 -53 148 -3 45 46 54 71 54 161 0 92 -23 143 -74 168 -43 20 -63 20 -106 -2z
m103 -42 c32 -25 51 -101 41 -165 -18 -124 -142 -149 -174 -36 -41 147 42 272
133 201z"/>
<path d="M9924 701 c-41 -25 -56 -67 -39 -108 10 -25 30 -39 90 -67 81 -39
100 -63 82 -103 -23 -52 -96 -50 -134 3 -14 19 -25 25 -38 21 -16 -7 -16 -9 0
-34 51 -77 122 -96 176 -45 67 63 52 138 -36 180 -90 42 -100 49 -103 78 -7
59 63 72 115 22 36 -34 49 -33 39 5 -13 54 -100 81 -152 48z"/>
<path d="M1256 695 c-8 -21 -6 -280 3 -320 l6 -30 93 -3 92 -3 0 26 c0 25 -1
25 -75 25 -65 0 -75 2 -75 18 -1 9 -2 80 -3 157 -2 120 -4 140 -18 143 -9 2
-19 -4 -23 -13z"/>
<path d="M1520 565 l0 -145 36 -40 c32 -35 42 -40 79 -40 37 0 47 5 79 40 l36
40 0 146 c0 133 -1 145 -17 142 -16 -3 -18 -19 -21 -144 -2 -127 -5 -143 -23
-160 -28 -25 -84 -23 -112 4 -20 21 -22 33 -24 155 -2 72 -3 135 -3 140 0 4
-7 7 -15 7 -13 0 -15 -23 -15 -145z"/>
<path d="M1815 701 c-8 -14 15 -25 45 -23 48 3 50 -4 53 -170 1 -86 5 -159 9
-163 21 -22 28 16 28 159 0 105 4 156 12 164 7 7 29 12 50 12 27 0 38 4 38 15
0 12 -19 15 -114 15 -63 0 -117 -4 -121 -9z"/>
<path d="M2127 704 c-11 -11 -8 -337 3 -354 23 -37 30 9 28 180 -3 163 -9 196
-31 174z"/>
<path d="M2587 703 c-12 -12 -8 -351 4 -359 22 -13 29 23 29 159 0 75 3 137 8
137 4 0 26 -37 49 -82 41 -81 111 -208 120 -218 16 -17 23 48 20 195 -2 143
-4 170 -17 170 -12 0 -16 -21 -18 -117 -1 -65 -6 -118 -10 -118 -4 0 -29 42
-56 93 -27 50 -58 104 -68 120 -18 25 -47 35 -61 20z"/>
<path d="M3062 528 l3 -183 52 -3 c46 -3 59 1 99 29 80 54 107 163 64 256 -27
61 -68 83 -153 83 l-67 0 2 -182z m134 137 c42 -17 64 -63 64 -135 0 -89 -44
-140 -119 -140 -29 0 -41 5 -45 18 -9 34 -5 246 6 259 14 17 50 16 94 -2z"/>
<path d="M3377 703 c-9 -8 -9 -326 -1 -347 5 -13 24 -16 106 -16 97 0 99 0 96
23 -3 20 -9 22 -83 27 l-80 5 0 60 0 60 47 3 c25 2 52 9 58 17 15 18 4 23 -60
27 l-45 3 -3 49 c-2 32 1 52 10 57 7 5 43 9 81 9 53 0 67 3 67 15 0 12 -17 15
-93 15 -52 0 -97 -3 -100 -7z"/>
<path d="M3807 703 c-12 -11 -8 -351 4 -358 20 -13 23 6 20 140 -3 186 6 184
65 -14 18 -63 38 -119 43 -124 13 -13 23 12 57 132 30 105 52 164 55 141 1 -8
2 -72 3 -142 1 -69 4 -130 9 -134 21 -22 27 23 25 187 l-3 174 -26 3 c-31 4
-35 -5 -74 -145 -16 -57 -33 -103 -40 -103 -6 0 -26 51 -44 114 -18 62 -38
119 -44 125 -12 12 -40 15 -50 4z"/>
<path d="M4502 528 l3 -183 55 -2 c46 -2 61 2 94 25 65 45 80 74 84 155 6 127
-48 187 -170 187 l-68 0 2 -182z m134 137 c81 -34 88 -207 11 -258 -36 -23
-107 -23 -107 1 -3 114 0 254 5 262 9 14 50 12 91 -5z"/>
<path d="M5102 528 l3 -183 93 -3 92 -3 0 26 c0 25 -1 25 -75 25 l-74 0 -3
157 c-3 142 -5 158 -21 161 -16 3 -17 -9 -15 -180z"/>
<path d="M5366 694 c-8 -21 -8 -283 0 -323 8 -40 30 -40 38 0 8 40 8 302 0
323 -3 9 -12 16 -19 16 -7 0 -16 -7 -19 -16z"/>
<path d="M5863 698 c-5 -7 -31 -87 -57 -177 -34 -116 -44 -167 -37 -174 16
-16 27 -1 48 63 18 54 19 55 60 58 57 4 78 -10 92 -60 15 -59 27 -76 42 -61
13 13 11 20 -67 281 -22 72 -27 82 -48 82 -13 0 -28 -6 -33 -12z m58 -120 c10
-35 15 -66 13 -70 -9 -15 -74 -9 -80 7 -4 8 2 45 12 80 20 77 30 74 55 -17z"/>
<path d="M6005 701 c-8 -14 13 -24 54 -25 l36 -1 5 -165 c4 -138 7 -165 20
-165 13 0 15 25 18 154 1 93 7 160 13 168 7 7 29 13 50 13 28 0 39 4 39 15 0
12 -19 15 -114 15 -63 0 -117 -4 -121 -9z"/>
<path d="M6310 531 c0 -121 4 -182 11 -187 23 -14 29 26 26 191 -2 153 -4 170
-19 173 -17 3 -18 -10 -18 -177z"/>
<path d="M6770 531 c0 -166 6 -208 27 -187 3 3 6 68 7 146 0 78 5 140 10 141
10 1 25 -24 114 -191 28 -52 55 -96 61 -98 17 -6 22 56 19 213 -3 125 -5 150
-18 150 -12 0 -16 -21 -18 -117 -1 -67 -7 -118 -12 -118 -5 0 -28 37 -51 82
-65 129 -86 158 -114 158 l-25 0 0 -179z"/>
<path d="M7246 694 c-8 -21 -8 -283 0 -323 6 -30 8 -31 60 -31 43 0 62 6 99
31 62 42 79 78 80 164 0 80 -25 134 -75 160 -41 21 -156 20 -164 -1z m158 -42
c66 -59 59 -202 -13 -245 -37 -22 -97 -23 -105 -1 -12 31 -7 249 7 263 16 16
85 6 111 -17z"/>
<path d="M7546 695 c-9 -25 -7 -88 4 -105 17 -27 31 4 28 60 -3 53 -20 76 -32
45z"/>
<path d="M7667 703 c-9 -8 -9 -310 -1 -340 6 -22 11 -23 106 -23 97 0 99 0 96
23 -3 20 -9 22 -80 25 -87 3 -93 9 -86 88 l3 39 52 5 c28 3 55 8 58 12 16 15
-9 28 -55 28 -53 0 -60 8 -60 64 0 47 15 56 92 56 54 0 68 3 68 15 0 12 -17
15 -93 15 -52 0 -97 -3 -100 -7z"/>
<path d="M7957 703 c-12 -11 -8 -351 4 -358 20 -13 24 8 24 146 0 80 4 139 10
140 5 1 16 -12 25 -27 8 -16 37 -69 65 -119 27 -49 55 -102 63 -117 33 -67 44
-17 40 187 -3 125 -5 150 -18 150 -12 0 -16 -21 -18 -117 -1 -65 -6 -118 -11
-118 -4 0 -34 48 -65 108 -32 59 -63 113 -68 120 -11 13 -40 16 -51 5z"/>
<path d="M8250 695 c0 -11 11 -15 38 -15 21 0 43 -5 50 -12 8 -8 12 -59 12
-164 0 -143 7 -181 28 -159 4 4 9 79 12 168 l5 162 30 2 c17 0 36 2 43 2 6 1
12 8 12 16 0 12 -19 15 -115 15 -96 0 -115 -3 -115 -15z"/>
<path d="M8547 703 c-10 -10 -8 -336 2 -352 18 -29 31 2 31 73 0 80 11 100 52
94 24 -3 32 -16 78 -121 24 -57 50 -75 50 -37 0 11 -14 50 -30 87 l-30 67 30
31 c22 23 30 40 30 67 0 50 -8 66 -41 83 -28 15 -159 21 -172 8z m165 -53 c24
-30 23 -46 -7 -76 -21 -21 -33 -25 -73 -22 l-47 3 -3 48 c-4 65 10 81 67 74
30 -3 51 -12 63 -27z"/>
<path d="M8862 528 l3 -183 100 0 c93 0 100 1 100 20 0 18 -8 20 -82 23 l-83
3 0 64 0 64 53 3 c38 2 52 7 52 18 0 11 -14 16 -50 20 l-50 5 0 55 0 55 78 3
c59 2 77 6 77 17 0 12 -19 15 -100 15 l-100 0 2 -182z"/>
<path d="M9147 703 c-12 -12 -8 -351 4 -359 19 -12 29 18 29 92 l0 71 61 6
c49 4 67 11 90 33 41 39 40 94 0 135 -27 27 -35 29 -104 29 -40 0 -77 -3 -80
-7z m160 -49 c39 -54 -2 -108 -79 -102 l-43 3 -3 49 c-5 74 0 79 60 74 34 -4
56 -12 65 -24z"/>
<path d="M9425 678 c-7 -45 -2 -325 7 -333 17 -18 28 12 28 79 0 77 9 96 46
96 28 0 41 -17 78 -102 17 -39 37 -73 44 -76 20 -6 14 41 -13 102 -31 70 -31
77 -1 106 49 45 42 116 -13 145 -19 9 -56 15 -100 15 l-70 0 -6 -32z m165 -23
c28 -25 25 -60 -6 -84 -30 -23 -93 -28 -112 -9 -16 16 -15 90 1 107 17 17 92
8 117 -14z"/>
<path d="M9750 531 c0 -169 6 -208 28 -186 4 4 7 86 7 183 0 160 -2 177 -17
180 -17 3 -18 -10 -18 -177z"/>
<path d="M10187 703 c-9 -8 -9 -326 -1 -347 5 -13 24 -16 106 -16 97 0 99 0
96 23 -3 20 -9 22 -83 27 l-80 5 -3 62 -3 62 53 3 c40 2 54 7 56 20 3 14 -6
17 -50 20 l-53 3 0 55 0 55 78 3 c59 2 77 6 77 17 0 12 -18 15 -93 15 -52 0
-97 -3 -100 -7z"/>
</g>
</svg>
