<?xml version="1.0" encoding="UTF-8"?>
<svg version="1.1" xmlns="http://www.w3.org/2000/svg" width="164" height="164">
<path d="M0 0 C0.73669922 0.83337891 0.73669922 0.83337891 1.48828125 1.68359375 C2.94914864 3.2233293 2.94914864 3.2233293 5.2421875 3.15234375 C6.11101562 3.08144531 6.97984375 3.01054688 7.875 2.9375 C18.52961228 2.64035942 27.82118211 6.31440286 35.625 13.375 C41.02163775 19.33970488 42.43897932 22.81305397 42.140625 30.8046875 C42.09421875 31.52914062 42.0478125 32.25359375 42 33 C42.99 33 43.98 33 45 33 C45 41.91 45 50.82 45 60 C44.01 60.495 44.01 60.495 43 61 C43 65.62 43 70.24 43 75 C42.34 75 41.68 75 41 75 C40.75121094 75.75152344 40.50242188 76.50304687 40.24609375 77.27734375 C37.74877745 82.73386244 32.45059302 85.90020556 27.1015625 88.30078125 C24.417717 89.29013448 21.7447034 90.19603963 19 91 C18.38769531 91.19980469 17.77539062 91.39960937 17.14453125 91.60546875 C12.6823071 92.42638795 8.04913152 91.95101209 3.53125 91.83984375 C0.2843516 91.98710352 -1.38134919 92.15795886 -4 94 C-4.33 94.66 -4.66 95.32 -5 96 C-6.90205485 96.94958865 -8.84794154 97.81257074 -10.8125 98.625 C-11.87082031 99.07101563 -12.92914063 99.51703125 -14.01953125 99.9765625 C-17 101 -17 101 -21 101 C-21.33 101.66 -21.66 102.32 -22 103 C-35.43473879 106.23477206 -51.27462458 102.27948951 -63.1875 95.8125 C-66.22400279 93.85564265 -68.78484296 91.63509876 -71.44921875 89.20703125 C-72.93551966 87.7952614 -72.93551966 87.7952614 -75 88 C-76.67419438 88.9873454 -78.34051852 89.98812105 -80 91 C-85.93353187 92.97784396 -92.63853119 93.00831235 -98.375 90.375 C-105.6795208 86.10282628 -108.50351181 79.48617681 -110.64331055 71.64160156 C-111.26764989 69.09973883 -111.86015503 66.55294362 -112.4375 64 C-114.11805765 56.45748766 -114.11805765 56.45748766 -116.2109375 49.0234375 C-118.8599976 40.24960015 -119.47222688 31.95352539 -119.625 22.8125 C-119.66020752 21.62897949 -119.69541504 20.44545898 -119.73168945 19.22607422 C-119.71935751 11.06232645 -119.71935751 11.06232645 -117.73876953 8.13745117 C-112.03308129 3.19898153 -105.19911076 2.52792716 -98 3 C-94.72966748 3.88387365 -94.12466623 4.80854829 -92.25 7.6875 C-90.82538512 11.46272944 -90.56305986 13.99471541 -91 18 C-92.71629111 21.77584044 -94.6852883 23.6166949 -98 26 C-97.02307828 30.07551801 -96.04443771 34.15061825 -95.06420898 38.2253418 C-94.73105468 39.61129613 -94.3983686 40.9973631 -94.06616211 42.38354492 C-93.58831144 44.37708933 -93.10877307 46.37022132 -92.62890625 48.36328125 C-92.34088135 49.56251221 -92.05285645 50.76174316 -91.75610352 51.99731445 C-91.0344981 55.0215048 -91.0344981 55.0215048 -90 58 C-90.15984375 57.29875 -90.3196875 56.5975 -90.484375 55.875 C-92.72148355 43.40142503 -90.57057752 28.95982971 -84 18 C-83.34 17.67 -82.68 17.34 -82 17 C-81.773125 16.29875 -81.54625 15.5975 -81.3125 14.875 C-79.41052196 10.70876239 -76.29528013 8.1075743 -73 5 C-72.36449219 4.33226562 -71.72898438 3.66453125 -71.07421875 2.9765625 C-51.2581159 -15.90657882 -21.58272299 -14.4410907 0 0 Z M-76.77734375 11.96875 C-84.8596029 22.00473592 -88.37241751 33.78898169 -88.25 46.5 C-88.25773437 47.30308594 -88.26546875 48.10617188 -88.2734375 48.93359375 C-88.25613026 54.27287674 -87.48251467 58.8700286 -86 64 C-85.67 64 -85.34 64 -85 64 C-84.93683594 63.43796875 -84.87367187 62.8759375 -84.80859375 62.296875 C-83.81760341 55.4955518 -81.88684059 49.11532057 -79.6875 42.625 C-79.40382568 41.75713867 -79.12015137 40.88927734 -78.82788086 39.99511719 C-77.00517502 34.77060108 -75.07511922 31.8621339 -71 28 C-71.22938254 26.0994018 -71.47337563 24.19697564 -71.8515625 22.3203125 C-72.20463544 16.80122502 -69.58763963 10.96339229 -66.16796875 6.734375 C-62.3427655 3.6742124 -57.95254258 3.86844301 -53.19995117 3.79467773 C-52.05914597 3.77473251 -50.91834076 3.75478729 -49.7429657 3.73423767 C-48.52196671 3.71752518 -47.30096771 3.70081268 -46.04296875 3.68359375 C-44.15581902 3.6524221 -44.15581902 3.6524221 -42.23054504 3.62062073 C-38.89827714 3.56639535 -35.56599761 3.51612055 -32.23364258 3.46777344 C-28.82823445 3.41738916 -25.4229118 3.36179177 -22.01757812 3.30664062 C-15.34512033 3.19963301 -8.67259826 3.09783476 -2 3 C-10.4677562 -5.76322113 -22.09214617 -8.00208453 -33.875 -8.3125 C-51.24398298 -7.99294079 -65.22200788 -0.83100666 -76.77734375 11.96875 Z M-2 3 C-1.67 3.66 -1.34 4.32 -1 5 C-0.34 4.67 0.32 4.34 1 4 C0.01 3.67 -0.98 3.34 -2 3 Z M-109 6 C-109 6.33 -109 6.66 -109 7 C-106.36 7 -103.72 7 -101 7 C-101 6.67 -101 6.34 -101 6 C-103.64 6 -106.28 6 -109 6 Z M-5.21557617 4.86474609 C-6.4966777 4.88491791 -7.77777924 4.90508972 -9.09770203 4.9258728 C-10.49612933 4.95817592 -11.89455148 4.99070276 -13.29296875 5.0234375 C-14.72356082 5.04960862 -16.15416969 5.07487532 -17.58479309 5.09927368 C-21.34806608 5.16588583 -25.11098513 5.24478664 -28.8739624 5.32623291 C-32.71466498 5.40719113 -36.55557503 5.47654745 -40.39648438 5.546875 C-47.93124096 5.68655061 -55.46566135 5.83920662 -63 6 C-63 6.33 -63 6.66 -63 7 C-40.89 7 -18.78 7 4 7 C0.43209445 4.6213963 -0.99216547 4.78177142 -5.21557617 4.86474609 Z M7 6 C11 7 11 7 11 7 Z M12 7 C16 8 16 8 16 8 Z M-67 10 C-66 13 -66 13 -66 13 Z M-117 12 C-116 14 -116 14 -116 14 Z M-68 13 C-67 16 -67 16 -67 16 Z M-118 14 C-117 16 -117 16 -117 16 Z M-69 16 C-68 19 -68 19 -68 19 Z M-70 19 C-69 23 -69 23 -69 23 Z M-118 24 C-117 26 -117 26 -117 26 Z M-53.66210938 27.91381836 C-54.10361328 28.9322583 -54.54511719 29.95069824 -55 31 C-55.99 31.66 -56.98 32.32 -58 33 C-55.32756186 43.8679151 -51.59356149 54.41101147 -48 65 C-46.515 64.505 -46.515 64.505 -45 64 C-43.99573291 62.06553512 -43.99573291 62.06553512 -43.31640625 59.66015625 C-43.02830078 58.76103516 -42.74019531 57.86191406 -42.44335938 56.93554688 C-42.15267578 55.98744141 -41.86199219 55.03933594 -41.5625 54.0625 C-35.38194444 34.38194444 -35.38194444 34.38194444 -32 31 C-28.18204288 29.93982913 -24.50923216 29.86570263 -20.5625 29.875 C-19.47066406 29.87242188 -18.37882812 29.86984375 -17.25390625 29.8671875 C-14.08807476 29.99640511 -11.10964455 30.40902683 -8 31 C-6.41084565 35.94112159 -5.72555871 40.19434727 -5.62109375 45.4296875 C-5.60409927 46.10548859 -5.5871048 46.78128967 -5.56959534 47.47756958 C-5.51698558 49.6099546 -5.47635931 51.74232371 -5.4375 53.875 C-5.3935455 56.02901091 -5.34695271 58.18287458 -5.29469299 60.33670044 C-5.24830142 62.27495068 -5.21072239 64.21340586 -5.17358398 66.15185547 C-5.32194128 68.89898586 -5.32194128 68.89898586 -4 70 C-1.4248055 70.12772014 1.11173199 70.18521854 3.6875 70.1875 C4.39583984 70.19974609 5.10417969 70.21199219 5.83398438 70.22460938 C10.27954217 70.23692394 13.81008865 69.66936626 18 68 C18 67.34 18 66.68 18 66 C18.61359375 65.73445313 19.2271875 65.46890625 19.859375 65.1953125 C22.67425632 63.62349921 23.90408574 61.63022316 25.23046875 58.734375 C27.43153616 50.91332328 27.26971516 41.68679806 23.9375 34.25 C21.00933446 29.300402 17.65401385 27.14516629 12.1595459 25.42320251 C9.41817405 24.88598057 6.8037354 24.83300092 4.00976562 24.79125977 C2.80171265 24.77196915 1.59365967 24.75267853 0.34899902 24.73280334 C-5.14865708 24.67508042 -10.64616766 24.62554199 -16.14404297 24.5949707 C-19.04846067 24.57711918 -21.95191438 24.54223013 -24.85595703 24.49243164 C-28.36848779 24.43228147 -31.88012148 24.40150512 -35.3931427 24.39179802 C-37.37865194 24.37908299 -39.36390314 24.33703209 -41.34899902 24.29457092 C-48.3346614 24.02682375 -48.3346614 24.02682375 -53.66210938 27.91381836 Z M-117 28 C-116 31 -116 31 -116 31 Z M26 30 C27 32 27 32 27 32 Z M-116 32 C-115 35 -115 35 -115 35 Z M-72 32 C-72.33 32.66 -72.66 33.32 -73 34 C-71.02 33.67 -69.04 33.34 -67 33 C-67 32.67 -67 32.34 -67 32 C-68.65 32 -70.3 32 -72 32 Z M-30 32 C-30 32.33 -30 32.66 -30 33 C-25.05 33 -20.1 33 -15 33 C-15 32.67 -15 32.34 -15 32 C-19.95 32 -24.9 32 -30 32 Z M-32 33 C-31.67 33.66 -31.34 34.32 -31 35 C-30.67 34.34 -30.34 33.68 -30 33 C-30.66 33 -31.32 33 -32 33 Z M-75 35 C-74 37 -74 37 -74 37 Z M-115 36 C-114 39 -114 39 -114 39 Z M-34 36 C-33 38 -33 38 -33 38 Z M28 36 C29 39 29 39 29 39 Z M-76 37 C-75 40 -75 40 -75 40 Z M-35 38 C-34 41 -34 41 -34 41 Z M-114 40 C-113 43 -113 43 -113 43 Z M-77 40 C-76 43 -76 43 -76 43 Z M29 40 C29 44.62 29 49.24 29 54 C29.33 54 29.66 54 30 54 C30 49.38 30 44.76 30 40 C29.67 40 29.34 40 29 40 Z M-36 42 C-35 45 -35 45 -35 45 Z M-78 43 C-77 46 -77 46 -77 46 Z M-113 44 C-112 47 -112 47 -112 47 Z M-37 45 C-36 48 -36 48 -36 48 Z M-79 46 C-78 49 -78 49 -78 49 Z M-112 48 C-111 51 -111 51 -111 51 Z M-38 48 C-37 51 -37 51 -37 51 Z M-80 49 C-79 52 -79 52 -79 52 Z M-39 51 C-38 54 -38 54 -38 54 Z M-111 52 C-110 55 -110 55 -110 55 Z M-81 52 C-80 55 -80 55 -80 55 Z M-40 54 C-39 57 -39 57 -39 57 Z M-82 55 C-81 58 -81 58 -81 58 Z M28 55 C29 58 29 58 29 58 Z M-110 56 C-109 59 -109 59 -109 59 Z M-41 57 C-40 60 -40 60 -40 60 Z M-24 57 C-24 63.27 -24 69.54 -24 76 C-23.67 76 -23.34 76 -23 76 C-23 69.73 -23 63.46 -23 57 C-23.33 57 -23.66 57 -24 57 Z M-83 59 C-82 61 -82 61 -82 61 Z M27 59 C28 61 28 61 28 61 Z M-109 60 C-108 63 -108 63 -108 63 Z M-42 61 C-41 63 -41 63 -41 63 Z M26 61 C27 63 27 63 27 63 Z M-84 62 C-83 64 -83 64 -83 64 Z M25 63 C26 65 26 65 26 65 Z M-85 64 C-84 67 -84 67 -84 67 Z M-43 64 C-42 67 -42 67 -42 67 Z M-108 65 C-107 67 -107 67 -107 67 Z M-44 67 C-43 70 -43 70 -43 70 Z M-87 68 C-86 70 -86 70 -86 70 Z M-66 68 C-65 70 -65 70 -65 70 Z M-107 69 C-106 72 -106 72 -106 72 Z M-45 70 C-45.33 70.99 -45.66 71.98 -46 73 C-45.34 73 -44.68 73 -44 73 C-44.33 72.01 -44.66 71.02 -45 70 Z M-87 71 C-87.33 71.66 -87.66 72.32 -88 73 C-87.34 73 -86.68 73 -86 73 C-86.33 72.34 -86.66 71.68 -87 71 Z M-65 71 C-64 73 -64 73 -64 73 Z M10 72 C10 72.33 10 72.66 10 73 C11.65 73 13.3 73 15 73 C15 72.67 15 72.34 15 72 C13.35 72 11.7 72 10 72 Z M-106 73 C-105 75 -105 75 -105 75 Z M-8 73 C-8 73.33 -8 73.66 -8 74 C-2.39 74 3.22 74 9 74 C9 73.67 9 73.34 9 73 C3.39 73 -2.22 73 -8 73 Z M-64 74 C-63 76 -63 76 -63 76 Z M-68 78 C-69.38232443 79.62626404 -70.71937515 81.2925002 -72 83 C-72.99 82.34 -73.98 81.68 -75 81 C-72.33630795 87.90993055 -64.10115411 92.43282938 -57.71484375 95.66015625 C-43.88020179 101.54030766 -27.89720599 102.29473928 -13.65625 97.15625 C-10.23562486 95.667272 -7.12639644 94.03579303 -4 92 C-6.09467629 90.74433683 -6.09467629 90.74433683 -9.125 91.1875 C-13.38832911 90.98120988 -15.66323062 89.93318189 -19.30078125 87.875 C-20.97780435 86.84739675 -20.97780435 86.84739675 -23 87 C-23.28875 86.21625 -23.5775 85.4325 -23.875 84.625 C-24.84912254 81.90328368 -24.84912254 81.90328368 -27 80 C-29.34287418 82.67247634 -29.34287418 82.67247634 -30 86 C-31.32258472 86.68774405 -32.65986503 87.34711373 -34 88 C-35.010625 88.53625 -36.02125 89.0725 -37.0625 89.625 C-42.3929511 91.8718138 -48.62728988 92.00814705 -54.15625 90.35546875 C-55.80554941 89.64613023 -57.40766199 88.82934271 -59 88 C-59.99 87.67 -60.98 87.34 -62 87 C-62 86.34 -62 85.68 -62 85 C-62.66 85 -63.32 85 -64 85 C-64.66 82.69 -65.32 80.38 -66 78 C-66.66 78 -67.32 78 -68 78 Z " fill="#155674" transform="translate(119,35)"/>
<path d="M0 0 C2.86945054 1.83619937 3.61606984 4.01285851 4.80078125 7.15234375 C5.32879518 12.16847612 4.91568056 15.14747321 1.80078125 19.15234375 C0.48519422 20.17557811 -0.84602544 21.17938658 -2.19921875 22.15234375 C-1.25790721 26.06282302 -0.3158953 29.97313291 0.62670898 33.88330078 C1.10110137 35.85180306 1.57497163 37.82043115 2.04882812 39.7890625 C2.664805 42.34374554 3.28343612 44.89779013 3.90478516 47.45117188 C4.49017616 49.8692993 5.0658067 52.28981614 5.63037109 54.71289062 C5.88641113 55.79119141 6.14245117 56.86949219 6.40625 57.98046875 C6.62821045 58.9334082 6.8501709 59.88634766 7.07885742 60.86816406 C7.66052595 63.31951474 7.66052595 63.31951474 9.80078125 65.15234375 C10.55058294 62.15313697 10.78133195 59.744813 10.6328125 56.6328125 C10.6044706 51.24415471 12.26276626 46.51992388 13.98828125 41.46484375 C14.28025391 40.54123047 14.57222656 39.61761719 14.87304688 38.66601562 C16.69935559 33.21065476 18.41947451 29.8856589 22.80078125 26.15234375 C24.13515962 23.99520419 24.13515962 23.99520419 23.11328125 20.71484375 C22.31214395 15.01324321 24.29107899 10.21133348 26.80078125 5.15234375 C29.94422278 1.12229051 31.85053788 -0.12716703 36.80078125 -0.84765625 C38.71650818 -0.94566929 40.63503548 -0.995592 42.55322266 -1.00878906 C43.68434479 -1.01839661 44.81546692 -1.02800415 45.98086548 -1.03790283 C47.19245331 -1.04215271 48.40404114 -1.04640259 49.65234375 -1.05078125 C51.52882095 -1.05933136 51.52882095 -1.05933136 53.44320679 -1.0680542 C56.08424517 -1.07748964 58.72517029 -1.08439497 61.36621094 -1.08789062 C64.75025402 -1.09339562 68.13389886 -1.11748143 71.51781654 -1.14586258 C74.75012882 -1.16894359 77.98246057 -1.17093381 81.21484375 -1.17578125 C83.03829819 -1.19430145 83.03829819 -1.19430145 84.89859009 -1.2131958 C86.5858168 -1.20869415 86.5858168 -1.20869415 88.30712891 -1.20410156 C89.79341293 -1.20957001 89.79341293 -1.20957001 91.3097229 -1.21514893 C94.1719571 -0.79289864 95.04638955 -0.08905238 96.80078125 2.15234375 C96.00564621 2.15820999 95.21051117 2.16407623 94.39128113 2.17012024 C86.90148529 2.22800027 79.41202392 2.30004933 71.92252636 2.38805866 C68.07198869 2.43280546 64.22155787 2.47205173 60.37084961 2.4987793 C56.6553656 2.52476982 52.94029185 2.5651411 49.22506142 2.61553001 C47.80692964 2.63222771 46.38872686 2.64372392 44.97051048 2.64995766 C42.98567885 2.65956629 41.00097543 2.68930659 39.01635742 2.7199707 C37.32092049 2.73662529 37.32092049 2.73662529 35.5912323 2.75361633 C32.79992492 2.92779012 32.79992492 2.92779012 30.95137024 4.51530457 C29.22226535 6.9754467 29.13197035 9.17164187 28.80078125 12.15234375 C28.66349609 13.33570313 28.66349609 13.33570313 28.5234375 14.54296875 C28.27068683 16.7450157 28.03102864 18.94784751 27.80078125 21.15234375 C30.44078125 21.15234375 33.08078125 21.15234375 35.80078125 21.15234375 C36.79078125 18.84234375 37.78078125 16.53234375 38.80078125 14.15234375 C47.49410064 14.05927679 56.18724605 13.98839413 64.88095665 13.94509506 C68.9187021 13.92430371 72.95610435 13.89614302 76.99365234 13.85058594 C80.89701287 13.80682329 84.80004525 13.78314323 88.70363235 13.77283478 C90.18586002 13.7654975 91.66807165 13.75117074 93.15015793 13.72942352 C111.61577605 13.46947868 111.61577605 13.46947868 118.72836304 19.89324951 C125.31505996 27.00010694 125.97688363 35.10171147 125.92578125 44.40234375 C125.92964844 45.12164062 125.93351563 45.8409375 125.9375 46.58203125 C125.92754347 51.89881931 125.92754347 51.89881931 124.80078125 54.15234375 C124.47078125 55.14234375 124.14078125 56.13234375 123.80078125 57.15234375 C118.73210561 64.21228481 112.95878382 67.43300956 104.80078125 70.15234375 C103.17358643 70.2337823 101.54326406 70.25987395 99.9140625 70.25 C98.97626953 70.24677734 98.03847656 70.24355469 97.07226562 70.24023438 C95.60756836 70.22766602 95.60756836 70.22766602 94.11328125 70.21484375 C93.12521484 70.21033203 92.13714844 70.20582031 91.11914062 70.20117188 C88.67962651 70.18938678 86.24023436 70.17293386 83.80078125 70.15234375 C83.77105225 68.50250488 83.77105225 68.50250488 83.74072266 66.81933594 C83.66458224 62.73398153 83.57587789 58.64897937 83.48339844 54.56396484 C83.44514354 52.79678305 83.41028455 51.02952431 83.37890625 49.26220703 C83.33317973 46.72009812 83.27519836 44.17851727 83.21484375 41.63671875 C83.20329254 40.84803406 83.19174133 40.05934937 83.17984009 39.24676514 C83.069223 35.1244984 82.68885496 32.92849116 80.80078125 29.15234375 C75.19078125 29.15234375 69.58078125 29.15234375 63.80078125 29.15234375 C61.63442918 33.67069647 61.63442918 33.67069647 61.80078125 36.83984375 C61.80078125 37.60296875 61.80078125 38.36609375 61.80078125 39.15234375 C60.81078125 40.14234375 60.81078125 40.14234375 59.80078125 41.15234375 C57.92435523 45.37860603 56.78465575 49.20093943 56.86328125 53.83984375 C56.78307528 58.09076035 55.27674989 59.75672962 52.80078125 63.15234375 C52.2735007 64.41210269 51.77313785 65.68347862 51.30078125 66.96484375 C49.80078125 70.15234375 49.80078125 70.15234375 47.80078125 71.27734375 C45.80078125 71.15234375 45.80078125 71.15234375 44.26393127 69.87710571 C41.81462604 66.98986351 41.0386424 63.36634272 39.953125 59.80078125 C39.56707848 58.57882553 39.56707848 58.57882553 39.17323303 57.33218384 C38.3527521 54.73324427 37.54434911 52.13078676 36.73828125 49.52734375 C35.92805657 46.91696634 35.11511717 44.30761773 34.2926178 41.70108032 C33.78107323 40.07966056 33.27667385 38.45596641 32.78001404 36.82992554 C32.17750156 34.91840765 31.49622584 33.03204552 30.80078125 31.15234375 C30.14078125 30.82234375 29.48078125 30.49234375 28.80078125 30.15234375 C28.80078125 29.49234375 28.80078125 28.83234375 28.80078125 28.15234375 C25.87549899 28.48318156 25.87549899 28.48318156 22.80078125 30.15234375 C20.96874784 32.96992648 19.91916607 35.99601326 18.80078125 39.15234375 C18.50042969 39.85746094 18.20007812 40.56257813 17.890625 41.2890625 C15.62535179 46.98912207 15.73064146 52.04508022 15.88671875 58.125 C15.77026328 62.22740867 14.7735958 64.58610206 12.80078125 68.15234375 C12.40890625 68.95671875 12.01703125 69.76109375 11.61328125 70.58984375 C11.34515625 71.10546875 11.07703125 71.62109375 10.80078125 72.15234375 C12.12078125 73.47234375 13.44078125 74.79234375 14.80078125 76.15234375 C16.69291494 73.76660996 17.82469908 72.08059027 18.80078125 69.15234375 C19.46078125 69.15234375 20.12078125 69.15234375 20.80078125 69.15234375 C22.50773858 63.49662514 24.19412823 57.83742367 25.80078125 52.15234375 C26.46078125 52.15234375 27.12078125 52.15234375 27.80078125 52.15234375 C28.81068817 55.06567454 29.80694077 57.98349694 30.80078125 60.90234375 C31.23003906 62.13984375 31.23003906 62.13984375 31.66796875 63.40234375 C31.93867187 64.2015625 32.209375 65.00078125 32.48828125 65.82421875 C32.73964844 66.55737305 32.99101563 67.29052734 33.25 68.04589844 C33.80078125 70.15234375 33.80078125 70.15234375 33.80078125 74.15234375 C35.20707699 75.68376978 35.20707699 75.68376978 37.11328125 76.83984375 C38.03560547 77.46439453 38.03560547 77.46439453 38.9765625 78.1015625 C43.08094525 80.46575727 47.1874747 80.62505448 51.80078125 80.15234375 C57.08666393 78.32261513 58.98550079 75.88190334 61.80078125 71.15234375 C63.1007084 67.83023037 63.1007084 67.83023037 64.08984375 64.29296875 C64.27920502 63.66251648 64.46856628 63.03206421 64.66366577 62.38250732 C65.26057942 60.39180757 65.84425749 58.39758847 66.42578125 56.40234375 C67.01575137 54.39326932 67.60866939 52.38524189 68.20932007 50.3793335 C68.75042485 48.57045682 69.28100896 46.75844288 69.81103516 44.94628906 C70.80078125 42.15234375 70.80078125 42.15234375 72.80078125 40.15234375 C72.97369822 50.85398265 72.43228067 61.47323748 71.80078125 72.15234375 C72.46078125 72.48234375 73.12078125 72.81234375 73.80078125 73.15234375 C74.41953125 73.95671875 75.03828125 74.76109375 75.67578125 75.58984375 C78.16002111 78.58554476 80.04630882 79.8867734 83.90722656 80.47119141 C85.00695801 80.51832275 85.00695801 80.51832275 86.12890625 80.56640625 C86.928125 80.60507813 87.72734375 80.64375 88.55078125 80.68359375 C89.37578125 80.71453125 90.20078125 80.74546875 91.05078125 80.77734375 C91.89125 80.81601563 92.73171875 80.8546875 93.59765625 80.89453125 C95.66501507 80.98850211 97.73286752 81.07149939 99.80078125 81.15234375 C99.80078125 81.81234375 99.80078125 82.47234375 99.80078125 83.15234375 C98.81078125 83.15234375 97.82078125 83.15234375 96.80078125 83.15234375 C96.47078125 83.81234375 96.14078125 84.47234375 95.80078125 85.15234375 C91.3009788 87.93793574 88.05920006 88.85346626 82.80078125 88.15234375 C76.35103394 85.81966853 71.95760916 83.3225074 68.80078125 77.15234375 C68.47078125 77.87421875 68.14078125 78.59609375 67.80078125 79.33984375 C64.58627307 83.86024587 60.02147902 86.41211116 54.80078125 88.15234375 C46.38376921 88.84929379 40.85525138 87.85532384 33.80078125 83.15234375 C33.80078125 82.49234375 33.80078125 81.83234375 33.80078125 81.15234375 C33.14078125 81.15234375 32.48078125 81.15234375 31.80078125 81.15234375 C30.34015275 78.50495459 29.80078125 77.25786041 29.80078125 74.15234375 C29.36765625 74.58546875 28.93453125 75.01859375 28.48828125 75.46484375 C26.92578125 77.02734375 25.36328125 78.58984375 23.80078125 80.15234375 C22.15078125 79.16234375 20.50078125 78.17234375 18.80078125 77.15234375 C19.04828125 78.01859375 19.04828125 78.01859375 19.30078125 78.90234375 C19.80078125 81.15234375 19.80078125 81.15234375 19.80078125 85.15234375 C13.30736105 88.61550119 6.66252849 89.60840003 -0.5078125 87.4609375 C-6.54722874 84.73235436 -10.13103002 80.72724078 -12.68359375 74.57421875 C-14.39264138 69.85476337 -15.53081388 65.04250981 -16.63671875 60.15234375 C-18.3172764 52.60983141 -18.3172764 52.60983141 -20.41015625 45.17578125 C-23.05921635 36.4019439 -23.67144563 28.10586914 -23.82421875 18.96484375 C-23.85942627 17.78132324 -23.89463379 16.59780273 -23.9309082 15.37841797 C-23.91852736 7.18229972 -23.91852736 7.18229972 -21.8984375 4.28979492 C-20.30078125 2.93359375 -20.30078125 2.93359375 -17.19921875 1.15234375 C-16.45671875 0.71921875 -15.71421875 0.28609375 -14.94921875 -0.16015625 C-10.1291054 -1.36518459 -4.69908726 -1.81119349 0 0 Z M-13.19921875 2.15234375 C-13.19921875 2.48234375 -13.19921875 2.81234375 -13.19921875 3.15234375 C-10.55921875 3.15234375 -7.91921875 3.15234375 -5.19921875 3.15234375 C-5.19921875 2.82234375 -5.19921875 2.49234375 -5.19921875 2.15234375 C-7.83921875 2.15234375 -10.47921875 2.15234375 -13.19921875 2.15234375 Z M-21.19921875 8.15234375 C-20.19921875 10.15234375 -20.19921875 10.15234375 -20.19921875 10.15234375 Z M-22.19921875 10.15234375 C-21.19921875 12.15234375 -21.19921875 12.15234375 -21.19921875 12.15234375 Z M26.80078125 12.15234375 C27.80078125 15.15234375 27.80078125 15.15234375 27.80078125 15.15234375 Z M25.80078125 15.15234375 C26.80078125 19.15234375 26.80078125 19.15234375 26.80078125 19.15234375 Z M-22.19921875 20.15234375 C-21.19921875 22.15234375 -21.19921875 22.15234375 -21.19921875 22.15234375 Z M42.13867188 24.06616211 C41.69716797 25.08460205 41.25566406 26.10304199 40.80078125 27.15234375 C39.81078125 27.81234375 38.82078125 28.47234375 37.80078125 29.15234375 C40.47321939 40.02025885 44.20721976 50.56335522 47.80078125 61.15234375 C49.28578125 60.65734375 49.28578125 60.65734375 50.80078125 60.15234375 C51.80504834 58.21787887 51.80504834 58.21787887 52.484375 55.8125 C52.77248047 54.91337891 53.06058594 54.01425781 53.35742188 53.08789062 C53.64810547 52.13978516 53.93878906 51.19167969 54.23828125 50.21484375 C60.41883681 30.53428819 60.41883681 30.53428819 63.80078125 27.15234375 C67.61873837 26.09217288 71.29154909 26.01804638 75.23828125 26.02734375 C76.33011719 26.02476563 77.42195313 26.0221875 78.546875 26.01953125 C81.71270649 26.14874886 84.6911367 26.56137058 87.80078125 27.15234375 C89.3899356 32.09346534 90.07522254 36.34669102 90.1796875 41.58203125 C90.19668198 42.25783234 90.21367645 42.93363342 90.23118591 43.62991333 C90.28379567 45.76229835 90.32442194 47.89466746 90.36328125 50.02734375 C90.40723575 52.18135466 90.45382854 54.33521833 90.50608826 56.48904419 C90.55247983 58.42729443 90.59005886 60.36574961 90.62719727 62.30419922 C90.47883997 65.05132961 90.47883997 65.05132961 91.80078125 66.15234375 C94.37597575 66.28006389 96.91251324 66.33756229 99.48828125 66.33984375 C100.19662109 66.35208984 100.90496094 66.36433594 101.63476562 66.37695312 C106.08032342 66.38926769 109.6108699 65.82171001 113.80078125 64.15234375 C113.80078125 63.49234375 113.80078125 62.83234375 113.80078125 62.15234375 C114.414375 61.88679688 115.02796875 61.62125 115.66015625 61.34765625 C118.47503757 59.77584296 119.70486699 57.78256691 121.03125 54.88671875 C123.23231741 47.06566703 123.07049641 37.83914181 119.73828125 30.40234375 C116.81011571 25.45274575 113.4547951 23.29751004 107.96032715 21.57554626 C105.2189553 21.03832432 102.60451665 20.98534467 99.81054688 20.94360352 C98.6024939 20.9243129 97.39444092 20.90502228 96.14978027 20.88514709 C90.65212417 20.82742417 85.15461359 20.77788574 79.65673828 20.74731445 C76.75232058 20.72946293 73.84886687 20.69457388 70.94482422 20.64477539 C67.43229346 20.58462522 63.92065977 20.55384887 60.40763855 20.54414177 C58.42212931 20.53142674 56.43687811 20.48937584 54.45178223 20.44691467 C47.46611985 20.1791675 47.46611985 20.1791675 42.13867188 24.06616211 Z M-21.19921875 24.15234375 C-20.19921875 27.15234375 -20.19921875 27.15234375 -20.19921875 27.15234375 Z M-20.19921875 28.15234375 C-19.19921875 31.15234375 -19.19921875 31.15234375 -19.19921875 31.15234375 Z M-19.19921875 32.15234375 C-18.19921875 35.15234375 -18.19921875 35.15234375 -18.19921875 35.15234375 Z M123.80078125 32.15234375 C124.80078125 35.15234375 124.80078125 35.15234375 124.80078125 35.15234375 Z M-18.19921875 36.15234375 C-17.19921875 39.15234375 -17.19921875 39.15234375 -17.19921875 39.15234375 Z M-17.19921875 40.15234375 C-16.19921875 43.15234375 -16.19921875 43.15234375 -16.19921875 43.15234375 Z M-16.19921875 44.15234375 C-15.19921875 47.15234375 -15.19921875 47.15234375 -15.19921875 47.15234375 Z M-15.19921875 48.15234375 C-14.19921875 51.15234375 -14.19921875 51.15234375 -14.19921875 51.15234375 Z M13.80078125 51.15234375 C14.80078125 54.15234375 14.80078125 54.15234375 14.80078125 54.15234375 Z M-14.19921875 52.15234375 C-13.19921875 55.15234375 -13.19921875 55.15234375 -13.19921875 55.15234375 Z M54.80078125 53.15234375 C55.80078125 56.15234375 55.80078125 56.15234375 55.80078125 56.15234375 Z M12.80078125 55.15234375 C13.80078125 57.15234375 13.80078125 57.15234375 13.80078125 57.15234375 Z M-13.19921875 56.15234375 C-12.19921875 59.15234375 -12.19921875 59.15234375 -12.19921875 59.15234375 Z M53.80078125 57.15234375 C54.80078125 59.15234375 54.80078125 59.15234375 54.80078125 59.15234375 Z M11.80078125 58.15234375 C12.80078125 60.15234375 12.80078125 60.15234375 12.80078125 60.15234375 Z M-12.19921875 61.15234375 C-11.19921875 63.15234375 -11.19921875 63.15234375 -11.19921875 63.15234375 Z M29.80078125 64.15234375 C30.80078125 66.15234375 30.80078125 66.15234375 30.80078125 66.15234375 Z M-11.19921875 65.15234375 C-10.19921875 68.15234375 -10.19921875 68.15234375 -10.19921875 68.15234375 Z M8.80078125 67.15234375 C8.47078125 67.81234375 8.14078125 68.47234375 7.80078125 69.15234375 C8.46078125 69.15234375 9.12078125 69.15234375 9.80078125 69.15234375 C9.47078125 68.49234375 9.14078125 67.83234375 8.80078125 67.15234375 Z M30.80078125 67.15234375 C31.80078125 69.15234375 31.80078125 69.15234375 31.80078125 69.15234375 Z M-10.19921875 69.15234375 C-9.19921875 71.15234375 -9.19921875 71.15234375 -9.19921875 71.15234375 Z M31.80078125 70.15234375 C32.80078125 72.15234375 32.80078125 72.15234375 32.80078125 72.15234375 Z " fill="#125776" transform="translate(23.19921875,38.84765625)"/>
<path d="M0 0 C1.13112213 -0.00960754 2.26224426 -0.01921509 3.42764282 -0.02911377 C4.63923065 -0.03336365 5.85081848 -0.03761353 7.09912109 -0.04199219 C8.9755983 -0.0505423 8.9755983 -0.0505423 10.88998413 -0.05926514 C13.53102252 -0.06870058 16.17194763 -0.07560591 18.81298828 -0.07910156 C22.19703136 -0.08460656 25.58067621 -0.10869236 28.96459389 -0.13707352 C32.19690616 -0.16015453 35.42923792 -0.16214475 38.66162109 -0.16699219 C40.48507553 -0.18551239 40.48507553 -0.18551239 42.34536743 -0.20440674 C44.03259415 -0.19990509 44.03259415 -0.19990509 45.75390625 -0.1953125 C47.24019028 -0.20078094 47.24019028 -0.20078094 48.75650024 -0.20635986 C51.61873444 0.21589042 52.4931669 0.91973668 54.24755859 3.16113281 C53.45242355 3.16699905 52.65728851 3.1728653 51.83805847 3.1789093 C44.34826264 3.23678933 36.85880127 3.30883839 29.3693037 3.39684772 C25.51876603 3.44159453 21.66833521 3.48084079 17.81762695 3.50756836 C14.10214295 3.53355888 10.3870692 3.57393016 6.67183876 3.62431908 C5.25370698 3.64101678 3.8355042 3.65251298 2.41728783 3.65874672 C0.43245619 3.66835535 -1.55224722 3.69809565 -3.53686523 3.72875977 C-5.23230217 3.74541435 -5.23230217 3.74541435 -6.96199036 3.7624054 C-9.75329773 3.93657918 -9.75329773 3.93657918 -11.60185242 5.52409363 C-13.3309573 7.98423576 -13.42125231 10.18043093 -13.75244141 13.16113281 C-13.84396484 13.95003906 -13.93548828 14.73894531 -14.02978516 15.55175781 C-14.28253583 17.75380476 -14.52219402 19.95663657 -14.75244141 22.16113281 C-12.11244141 22.16113281 -9.47244141 22.16113281 -6.75244141 22.16113281 C-5.76244141 19.85113281 -4.77244141 17.54113281 -3.75244141 15.16113281 C4.94087799 15.06806585 13.6340234 14.9971832 22.32773399 14.95388412 C26.36547944 14.93309278 30.40288169 14.90493209 34.44042969 14.859375 C38.34379021 14.81561235 42.2468226 14.79193229 46.1504097 14.78162384 C47.63263736 14.77428657 49.11484899 14.75995981 50.59693527 14.73821259 C69.0625534 14.47826774 69.0625534 14.47826774 76.17514038 20.90203857 C82.76183731 28.008896 83.42366097 36.11050054 83.37255859 45.41113281 C83.37642578 46.13042969 83.38029297 46.84972656 83.38427734 47.59082031 C83.37432081 52.90760838 83.37432081 52.90760838 82.24755859 55.16113281 C81.91755859 56.15113281 81.58755859 57.14113281 81.24755859 58.16113281 C76.17888296 65.22107388 70.40556117 68.44179862 62.24755859 71.16113281 C60.62036378 71.24257136 58.9900414 71.26866301 57.36083984 71.25878906 C56.42304687 71.25556641 55.48525391 71.25234375 54.51904297 71.24902344 C53.0543457 71.23645508 53.0543457 71.23645508 51.56005859 71.22363281 C50.57199219 71.21912109 49.58392578 71.21460937 48.56591797 71.20996094 C46.12640385 71.19817585 43.6870117 71.18172292 41.24755859 71.16113281 C41.21782959 69.51129395 41.21782959 69.51129395 41.1875 67.828125 C41.11135958 63.74277059 41.02265523 59.65776843 40.93017578 55.57275391 C40.89192088 53.80557211 40.85706189 52.03831337 40.82568359 50.27099609 C40.77995707 47.72888718 40.72197571 45.18730633 40.66162109 42.64550781 C40.65006989 41.85682312 40.63851868 41.06813843 40.62661743 40.2555542 C40.51600034 36.13328746 40.1356323 33.93728022 38.24755859 30.16113281 C32.63755859 30.16113281 27.02755859 30.16113281 21.24755859 30.16113281 C19.08120652 34.67948553 19.08120652 34.67948553 19.24755859 37.84863281 C19.24755859 38.61175781 19.24755859 39.37488281 19.24755859 40.16113281 C18.58755859 40.82113281 17.92755859 41.48113281 17.24755859 42.16113281 C15.37113257 46.38739509 14.2314331 50.20972849 14.31005859 54.84863281 C14.22985262 59.09954941 12.72352723 60.76551868 10.24755859 64.16113281 C9.72027805 65.42089175 9.21991519 66.69226768 8.74755859 67.97363281 C7.24755859 71.16113281 7.24755859 71.16113281 5.24755859 72.28613281 C3.24755859 72.16113281 3.24755859 72.16113281 1.71070862 70.88589478 C-0.73859662 67.99865257 -1.51458026 64.37513178 -2.60009766 60.80957031 C-2.85746201 59.99493317 -3.11482635 59.18029602 -3.37998962 58.3409729 C-4.20047056 55.74203333 -5.00887355 53.13957582 -5.81494141 50.53613281 C-6.62516608 47.92575541 -7.43810549 45.31640679 -8.26060486 42.70986938 C-8.77214942 41.08844962 -9.27654881 39.46475548 -9.77320862 37.8387146 C-10.3757211 35.92719671 -11.05699681 34.04083458 -11.75244141 32.16113281 C-12.41244141 31.83113281 -13.07244141 31.50113281 -13.75244141 31.16113281 C-13.75244141 30.50113281 -13.75244141 29.84113281 -13.75244141 29.16113281 C-16.67772367 29.49197062 -16.67772367 29.49197062 -19.75244141 31.16113281 C-21.58399981 33.97798501 -22.64349313 37.00186239 -23.75244141 40.16113281 C-24.05279297 40.93585938 -24.35314453 41.71058594 -24.66259766 42.50878906 C-26.41320478 47.2557842 -26.85658585 51.05805528 -26.75244141 56.16113281 C-27.41244141 56.82113281 -28.07244141 57.48113281 -28.75244141 58.16113281 C-29.08244141 59.15113281 -29.41244141 60.14113281 -29.75244141 61.16113281 C-30.41244141 61.16113281 -31.07244141 61.16113281 -31.75244141 61.16113281 C-32.16115032 54.32527589 -30.76540557 48.92012722 -28.56494141 42.47363281 C-28.27296875 41.55001953 -27.98099609 40.62640625 -27.68017578 39.67480469 C-25.85386707 34.21944382 -24.13374814 30.89444796 -19.75244141 27.16113281 C-18.41806304 25.00399325 -18.41806304 25.00399325 -19.43994141 21.72363281 C-20.24107871 16.02203227 -18.26214367 11.22012254 -15.75244141 6.16113281 C-11.21338101 0.34182461 -7.04977656 0.04850222 0 0 Z M-15.75244141 13.16113281 C-14.75244141 16.16113281 -14.75244141 16.16113281 -14.75244141 16.16113281 Z M-16.75244141 16.16113281 C-15.75244141 20.16113281 -15.75244141 20.16113281 -15.75244141 20.16113281 Z M-0.41455078 25.07495117 C-0.85605469 26.09339111 -1.29755859 27.11183105 -1.75244141 28.16113281 C-2.74244141 28.82113281 -3.73244141 29.48113281 -4.75244141 30.16113281 C-2.08000327 41.02904791 1.65399711 51.57214428 5.24755859 62.16113281 C6.73255859 61.66613281 6.73255859 61.66613281 8.24755859 61.16113281 C9.25182568 59.22666793 9.25182568 59.22666793 9.93115234 56.82128906 C10.21925781 55.92216797 10.50736328 55.02304688 10.80419922 54.09667969 C11.09488281 53.14857422 11.38556641 52.20046875 11.68505859 51.22363281 C17.86561415 31.54307726 17.86561415 31.54307726 21.24755859 28.16113281 C25.06551571 27.10096194 28.73832643 27.02683545 32.68505859 27.03613281 C33.77689453 27.03355469 34.86873047 27.03097656 35.99365234 27.02832031 C39.15948383 27.15753792 42.13791405 27.57015964 45.24755859 28.16113281 C46.83671295 33.1022544 47.52199989 37.35548008 47.62646484 42.59082031 C47.64345932 43.2666214 47.6604538 43.94242249 47.67796326 44.63870239 C47.73057301 46.77108741 47.77119928 48.90345652 47.81005859 51.03613281 C47.8540131 53.19014372 47.90060588 55.34400739 47.9528656 57.49783325 C47.99925718 59.43608349 48.03683621 61.37453867 48.07397461 63.31298828 C47.92561731 66.06011867 47.92561731 66.06011867 49.24755859 67.16113281 C51.82275309 67.28885295 54.35929058 67.34635135 56.93505859 67.34863281 C57.64339844 67.36087891 58.35173828 67.373125 59.08154297 67.38574219 C63.52710076 67.39805675 67.05764724 66.83049907 71.24755859 65.16113281 C71.24755859 64.50113281 71.24755859 63.84113281 71.24755859 63.16113281 C71.86115234 62.89558594 72.47474609 62.63003906 73.10693359 62.35644531 C75.92181491 60.78463202 77.15164434 58.79135597 78.47802734 55.89550781 C80.67909476 48.07445609 80.51727375 38.84793087 77.18505859 31.41113281 C74.25689305 26.46153481 70.90157244 24.3062991 65.40710449 22.58433533 C62.66573265 22.04711338 60.051294 21.99413373 57.25732422 21.95239258 C56.04927124 21.93310196 54.84121826 21.91381134 53.59655762 21.89393616 C48.09890152 21.83621324 42.60139093 21.7866748 37.10351562 21.75610352 C34.19909793 21.738252 31.29564421 21.70336294 28.39160156 21.65356445 C24.8790708 21.59341428 21.36743711 21.56263794 17.85441589 21.55293083 C15.86890665 21.5402158 13.88365546 21.4981649 11.89855957 21.45570374 C4.9128972 21.18795656 4.9128972 21.18795656 -0.41455078 25.07495117 Z M81.24755859 33.16113281 C82.24755859 36.16113281 82.24755859 36.16113281 82.24755859 36.16113281 Z M-28.75244141 52.16113281 C-27.75244141 55.16113281 -27.75244141 55.16113281 -27.75244141 55.16113281 Z M12.24755859 54.16113281 C13.24755859 57.16113281 13.24755859 57.16113281 13.24755859 57.16113281 Z M11.24755859 58.16113281 C12.24755859 60.16113281 12.24755859 60.16113281 12.24755859 60.16113281 Z " fill="#1C1C1C" transform="translate(65.75244140625,37.8388671875)"/>
<path d="M0 0 C2.99609375 1.04296875 2.99609375 1.04296875 4.6484375 3.8671875 C5.10310741 5.14590413 5.52952057 6.43487398 5.93359375 7.73046875 C6.17174805 8.42221191 6.40990234 9.11395508 6.65527344 9.82666016 C7.46838399 12.22256313 8.23600711 14.62972782 8.99609375 17.04296875 C9.29725098 17.99349121 9.5984082 18.94401367 9.90869141 19.92333984 C10.22241699 20.91543457 10.53614258 21.9075293 10.859375 22.9296875 C11.17334229 23.92202393 11.48730957 24.91436035 11.81079102 25.93676758 C12.42871448 27.90634822 13.03746117 29.87883412 13.63647461 31.85424805 C13.91499268 32.75957275 14.19351074 33.66489746 14.48046875 34.59765625 C14.72506836 35.40702637 14.96966797 36.21639648 15.22167969 37.05029297 C15.91490383 39.23040834 15.91490383 39.23040834 17.99609375 41.04296875 C20.06483409 41.68549225 20.06483409 41.68549225 21.99609375 42.04296875 C21.99609375 41.38296875 21.99609375 40.72296875 21.99609375 40.04296875 C22.65609375 40.04296875 23.31609375 40.04296875 23.99609375 40.04296875 C24.09921875 39.17671875 24.20234375 38.31046875 24.30859375 37.41796875 C24.99609375 34.04296875 24.99609375 34.04296875 26.43359375 31.29296875 C27.7904613 28.47068424 28.34853642 26.61639432 28.87109375 23.60546875 C29.71164949 18.97181695 30.97621995 14.57492766 32.43359375 10.10546875 C32.63903809 9.45457275 32.84448242 8.80367676 33.05615234 8.13305664 C35.19607144 1.72419165 35.19607144 1.72419165 37.99609375 0.04296875 C40.60051983 -0.28258451 42.89703252 -0.42175951 45.49609375 -0.39453125 C46.17285156 -0.41451172 46.84960938 -0.43449219 47.546875 -0.45507812 C52.44237583 -0.45025021 52.44237583 -0.45025021 54.6809082 1.54370117 C56.56251671 5.11935112 56.4758133 8.57779987 56.5078125 12.52734375 C56.5257637 13.34293762 56.5437149 14.15853149 56.56221008 14.99884033 C56.61627395 17.59683098 56.65019557 20.19463833 56.68359375 22.79296875 C56.71677036 24.55731715 56.75126034 26.32164138 56.78710938 28.0859375 C56.87199795 32.40481558 56.93882752 36.72363967 56.99609375 41.04296875 C59.63609375 41.37296875 62.27609375 41.70296875 64.99609375 42.04296875 C64.99609375 42.37296875 64.99609375 42.70296875 64.99609375 43.04296875 C60.99609375 43.04296875 56.99609375 43.04296875 52.99609375 43.04296875 C51.29077052 44.98306397 51.29077052 44.98306397 49.99609375 47.04296875 C50.32609375 47.70296875 50.65609375 48.36296875 50.99609375 49.04296875 C47.99609375 48.04296875 47.99609375 48.04296875 46.34057617 45.92114258 C44.71236245 42.43557664 44.56609238 39.83290432 44.484375 35.9921875 C44.4664238 35.33338089 44.4484726 34.67457428 44.42997742 33.99580383 C44.37612719 31.90742244 44.34206267 29.81926615 44.30859375 27.73046875 C44.27539805 26.30791155 44.24090631 24.88538396 44.20507812 23.46289062 C44.12041774 19.9897996 44.05348605 16.51662962 43.99609375 13.04296875 C43.71934814 13.95062988 43.44260254 14.85829102 43.1574707 15.79345703 C42.11579039 19.18536758 41.06137015 22.57277111 39.99829102 25.95800781 C39.5423395 27.41898945 39.0914007 28.88154592 38.64575195 30.34570312 C38.00118924 32.4601569 37.33831317 34.56813442 36.671875 36.67578125 C36.47894363 37.3229007 36.28601227 37.97002014 36.0872345 38.63674927 C34.33714273 44.06831795 31.67940037 48.44748914 26.68359375 51.41796875 C21.58084183 52.60465524 17.58622509 52.65455773 12.74609375 50.79296875 C6.58456062 46.87199312 4.85993934 42.79433274 2.74609375 36.04296875 C2.47796875 35.23601562 2.20984375 34.4290625 1.93359375 33.59765625 C0.70663125 29.80408852 -0.00390625 27.09800642 -0.00390625 23.04296875 C-0.66390625 23.04296875 -1.32390625 23.04296875 -2.00390625 23.04296875 C-2.12507813 23.62304688 -2.24625 24.203125 -2.37109375 24.80078125 C-4.61662301 35.26840228 -4.61662301 35.26840228 -7.00390625 40.04296875 C-7.66390625 40.04296875 -8.32390625 40.04296875 -9.00390625 40.04296875 C-9.08640625 40.80609375 -9.16890625 41.56921875 -9.25390625 42.35546875 C-10.15006419 45.56670136 -11.2200165 46.33671374 -14.00390625 48.04296875 C-15.32390625 46.06296875 -16.64390625 44.08296875 -18.00390625 42.04296875 C-16.89051778 39.81619182 -15.78800532 37.7061633 -14.44140625 35.60546875 C-13.01654326 32.07428656 -12.82212787 29.9747094 -12.69140625 26.23046875 C-12.37308325 20.36519823 -11.06581975 15.35280791 -9.12890625 9.85546875 C-8.87197998 9.11256592 -8.61505371 8.36966309 -8.3503418 7.60424805 C-6.59129799 2.83507581 -5.5144976 0.07888098 0 0 Z " fill="#6DA3C4" transform="translate(51.00390625,67.95703125)"/>
<path d="M0 0 C0.67675781 -0.01998047 1.35351562 -0.03996094 2.05078125 -0.06054688 C6.94628208 -0.05571896 6.94628208 -0.05571896 9.18481445 1.93823242 C11.06642296 5.51388237 10.97971955 8.97233112 11.01171875 12.921875 C11.03864555 14.14526581 11.03864555 14.14526581 11.06611633 15.39337158 C11.1201802 17.99136223 11.15410182 20.58916958 11.1875 23.1875 C11.22067661 24.9518484 11.25516659 26.71617263 11.29101562 28.48046875 C11.3759042 32.79934683 11.44273377 37.11817092 11.5 41.4375 C14.14 41.7675 16.78 42.0975 19.5 42.4375 C19.5 42.7675 19.5 43.0975 19.5 43.4375 C15.5 43.4375 11.5 43.4375 7.5 43.4375 C5.79467677 45.37759522 5.79467677 45.37759522 4.5 47.4375 C4.83 48.0975 5.16 48.7575 5.5 49.4375 C2.5 48.4375 2.5 48.4375 0.84448242 46.31567383 C-0.7837313 42.83010789 -0.93000137 40.22743557 -1.01171875 36.38671875 C-1.04483154 35.18104248 -1.07794434 33.97536621 -1.11206055 32.7331543 C-1.13695557 31.21246338 -1.16185059 29.69177246 -1.1875 28.125 C-1.290625 23.278125 -1.39375 18.43125 -1.5 13.4375 C-4.47 23.0075 -7.44 32.5775 -10.5 42.4375 C-13.5 42.4375 -16.5 42.4375 -19.5 42.4375 C-20.83445392 38.03092195 -19.7179495 34.7556846 -18.5 30.4375 C-18.06107422 28.73787109 -18.06107422 28.73787109 -17.61328125 27.00390625 C-10.59172404 -0.11096092 -10.59172404 -0.11096092 0 0 Z " fill="#BFD8E6" transform="translate(96.5,67.5625)"/>
<path d="M0 0 C0.33 0 0.66 0 1 0 C1.17291697 10.7016389 0.63149942 21.32089373 0 32 C0.99 32.495 0.99 32.495 2 33 C2.928125 34.2065625 2.928125 34.2065625 3.875 35.4375 C6.35923986 38.43320101 8.24552757 39.73442965 12.10644531 40.31884766 C12.83959961 40.35026855 13.57275391 40.38168945 14.328125 40.4140625 C15.12734375 40.45273438 15.9265625 40.49140625 16.75 40.53125 C17.9875 40.57765625 17.9875 40.57765625 19.25 40.625 C20.09046875 40.66367188 20.9309375 40.70234375 21.796875 40.7421875 C23.86423382 40.83615836 25.93208627 40.91915564 28 41 C28 41.66 28 42.32 28 43 C27.01 43 26.02 43 25 43 C24.505 43.99 24.505 43.99 24 45 C19.50019755 47.78559199 16.25841881 48.70112251 11 48 C4.55025269 45.66732478 0.15682791 43.17016365 -3 37 C-3.495 38.0828125 -3.495 38.0828125 -4 39.1875 C-7.21450818 43.70790212 -11.77930223 46.25976741 -17 48 C-25.41701204 48.69695004 -30.94552987 47.70298009 -38 43 C-38 42.34 -38 41.68 -38 41 C-38.66 41 -39.32 41 -40 41 C-41.4606285 38.35261084 -42 37.10551666 -42 34 C-42.433125 34.433125 -42.86625 34.86625 -43.3125 35.3125 C-45.65625 37.65625 -45.65625 37.65625 -48 40 C-49.98 38.68 -51.96 37.36 -54 36 C-53.75765625 35.44054687 -53.5153125 34.88109375 -53.265625 34.3046875 C-50.22527428 27.03123309 -48.05956317 19.60285552 -46 12 C-45.34 12 -44.68 12 -44 12 C-42.99009308 14.91333079 -41.99384048 17.83115319 -41 20.75 C-40.71382812 21.575 -40.42765625 22.4 -40.1328125 23.25 C-39.86210938 24.04921875 -39.59140625 24.8484375 -39.3125 25.671875 C-38.93544922 26.77160645 -38.93544922 26.77160645 -38.55078125 27.89355469 C-38 30 -38 30 -38 34 C-36.59370426 35.53142603 -36.59370426 35.53142603 -34.6875 36.6875 C-33.76517578 37.31205078 -33.76517578 37.31205078 -32.82421875 37.94921875 C-28.719836 40.31341352 -24.61330655 40.47271073 -20 40 C-14.71324851 38.16997064 -12.81778424 35.72849504 -10 31 C-8.68456034 27.6780122 -8.68456034 27.6780122 -7.67578125 24.140625 C-7.48404831 23.51017273 -7.29231537 22.87972046 -7.09477234 22.23016357 C-6.49129888 20.23945885 -5.90145087 18.24504391 -5.3125 16.25 C-4.70998927 14.24163091 -4.10470709 12.23412286 -3.49809265 10.22698975 C-2.95269087 8.41740807 -2.41427296 6.60572585 -1.8762207 4.79394531 C-1 2 -1 2 0 0 Z M-42 24 C-41 26 -41 26 -41 26 Z M-41 27 C-40 29 -40 29 -40 29 Z M-40 30 C-39 32 -39 32 -39 32 Z " fill="#1E1F1E" transform="translate(95,79)"/>
<path d="M0 0 C9.88983866 -0.67049754 20.22628248 1.58668305 28 8 C36.73013493 15.89869351 36.73013493 15.89869351 37.24609375 21.828125 C37.24960142 24.5641059 37.17487303 27.27003765 37 30 C37.99 30 38.98 30 40 30 C40 38.91 40 47.82 40 57 C39.01 57.495 39.01 57.495 38 58 C38 62.62 38 67.24 38 72 C37.34 72 36.68 72 36 72 C35.75121094 72.75152344 35.50242188 73.50304687 35.24609375 74.27734375 C32.74877745 79.73386244 27.45059302 82.90020556 22.1015625 85.30078125 C19.417717 86.29013448 16.7447034 87.19603963 14 88 C13.37222656 88.19722656 12.74445313 88.39445312 12.09765625 88.59765625 C9.13206027 89.16647634 6.26578003 89.0926578 3.25 89.0625 C2.07953125 89.05347656 0.9090625 89.04445313 -0.296875 89.03515625 C-1.63492188 89.01775391 -1.63492188 89.01775391 -3 89 C-1.47298551 86.00252711 -0.46862402 84.20981667 2 82 C5.18770287 80.97785615 8.35195495 80.40661819 11.640625 79.7890625 C19.4843544 77.94669815 25.34015546 73.64726989 29.8203125 67.015625 C36.22550213 56.07165861 36.56690964 42.69351672 34.3515625 30.40234375 C31.99758308 22.60604437 27.71318497 16.71318497 22 11 C21.01 10.67 20.02 10.34 19 10 C18.4225 9.505 17.845 9.01 17.25 8.5 C14.2601931 6.5067954 11.52854243 6.39945763 8 6 C7.67 5.67 7.34 5.34 7 5 C5.33382885 4.95936168 3.66611905 4.957279 2 5 C1.34 3.35 0.68 1.7 0 0 Z " fill="#1D1D1D" transform="translate(124,38)"/>
<path d="M0 0 C2.86945054 1.83619937 3.61606984 4.01285851 4.80078125 7.15234375 C5.32879518 12.16847612 4.91568056 15.14747321 1.80078125 19.15234375 C0.48519422 20.17557811 -0.84602544 21.17938658 -2.19921875 22.15234375 C-1.25790721 26.06282302 -0.3158953 29.97313291 0.62670898 33.88330078 C1.10110137 35.85180306 1.57497163 37.82043115 2.04882812 39.7890625 C2.66539828 42.34620607 3.28403803 44.90285155 3.90478516 47.45898438 C4.4853742 49.85221356 5.06089297 52.24668075 5.63037109 54.64257812 C5.88641113 55.70283203 6.14245117 56.76308594 6.40625 57.85546875 C6.62821045 58.78520508 6.8501709 59.71494141 7.07885742 60.67285156 C7.71691386 63.16596247 7.71691386 63.16596247 8.94262695 65.34277344 C9.22581787 65.93993164 9.50900879 66.53708984 9.80078125 67.15234375 C8.92578125 69.40234375 8.92578125 69.40234375 7.80078125 71.15234375 C5.48828125 71.15234375 5.48828125 71.15234375 2.80078125 70.15234375 C0.23134591 64.32475845 -1.23191759 58.34709879 -2.63671875 52.15234375 C-3.06833938 50.29671879 -3.50063858 48.44125154 -3.93359375 46.5859375 C-4.14564453 45.67183105 -4.35769531 44.75772461 -4.57617188 43.81591797 C-5.48252086 39.94120503 -6.42637051 36.07648362 -7.38671875 32.21484375 C-7.68964844 30.98894531 -7.99257812 29.76304688 -8.3046875 28.5 C-9.15777842 25.1415204 -9.15777842 25.1415204 -10.3359375 21.890625 C-11.296564 18.8435699 -11.08978058 17.18025396 -10.19921875 14.15234375 C-8.21921875 13.49234375 -6.23921875 12.83234375 -4.19921875 12.15234375 C-3.44964718 8.68086533 -3.44964718 8.68086533 -3.19921875 5.15234375 C-3.85921875 4.82234375 -4.51921875 4.49234375 -5.19921875 4.15234375 C-5.19921875 3.82234375 -5.19921875 3.49234375 -5.19921875 3.15234375 C-11.2986283 2.73169482 -14.33585528 3.06269719 -19.19921875 7.15234375 C-21.52199291 9.76148245 -21.52199291 9.76148245 -23.19921875 12.15234375 C-23.57421875 9.46484375 -23.57421875 9.46484375 -23.19921875 6.15234375 C-17.02428378 -0.16619436 -8.69062045 -3.34967076 0 0 Z " fill="#1D1D1D" transform="translate(23.19921875,38.84765625)"/>
<path d="M0 0 C2.66157375 -0.14700322 5.27907473 -0.12613117 7.94380188 -0.05351257 C8.91618301 -0.04643784 9.88856415 -0.0393631 10.89041138 -0.03207397 C13.99883175 -0.00406541 17.10545647 0.05868593 20.21333313 0.12226868 C22.31942692 0.14734315 24.42554893 0.1701578 26.5316925 0.19062805 C31.69709884 0.24578268 36.86116148 0.33210073 42.02583313 0.43476868 C41.03583313 0.76476868 40.04583313 1.09476868 39.02583313 1.43476868 C39.68583313 3.41476868 40.34583313 5.39476868 41.02583313 7.43476868 C46.96583313 7.76476868 52.90583313 8.09476868 59.02583313 8.43476868 C59.02583313 8.76476868 59.02583313 9.09476868 59.02583313 9.43476868 C55.60783551 10.20638658 52.46145163 10.55734133 48.9601593 10.54829407 C47.97952011 10.54821854 46.99888092 10.54814301 45.98852539 10.54806519 C44.94251663 10.5429039 43.89650787 10.53774261 42.81880188 10.53242493 C41.73827042 10.53100998 40.65773895 10.52959503 39.54446411 10.52813721 C36.10072537 10.52254948 32.65705215 10.50999917 29.21333313 10.49726868 C26.87544345 10.49225209 24.53755274 10.48768946 22.19966125 10.4835968 C16.4750296 10.47258406 10.75043605 10.45585809 5.02583313 10.43476868 C4.71645813 11.56914368 4.40708313 12.70351868 4.08833313 13.87226868 C3.02583313 17.43476868 3.02583313 17.43476868 2.02583313 18.43476868 C-3.50357863 18.67006279 -3.50357863 18.67006279 -5.97416687 17.43476868 C-5.88644232 15.53810341 -5.77825386 13.64237875 -5.66166687 11.74726868 C-5.60365906 10.69152649 -5.54565125 9.6357843 -5.48588562 8.54804993 C-4.23414211 0.93248063 -4.23414211 0.93248063 0 0 Z " fill="#5A9DC6" transform="translate(56.97416687011719,42.56523132324219)"/>
<path d="M0 0 C0.33 0 0.66 0 1 0 C1.50688605 2.54046458 2.00566874 5.08208876 2.5 7.625 C2.64308594 8.33785156 2.78617187 9.05070312 2.93359375 9.78515625 C3.56985815 13.08767149 3.9998477 16.01656293 3.96875 19.3984375 C3.69904291 22.16475132 3.69904291 22.16475132 6 24 C6.04165763 25.99956611 6.04165763 28.00043389 6 30 C6.33 30.66 6.66 31.32 7 32 C6.67 32.99 6.34 33.98 6 35 C6.66 35.33 7.32 35.66 8 36 C8.35919668 37.66128463 8.68911632 39.32900023 9 41 C9.556875 41.9590625 9.556875 41.9590625 10.125 42.9375 C11.3604428 45.84961517 10.6863148 47.98021487 10 51 C10.66 51 11.32 51 12 51 C12.13277344 51.61488281 12.26554688 52.22976562 12.40234375 52.86328125 C12.57894531 53.67152344 12.75554688 54.47976562 12.9375 55.3125 C13.11152344 56.11300781 13.28554687 56.91351563 13.46484375 57.73828125 C14.39763168 61.68050176 15.07988716 63.43783184 18.4375 65.6875 C23.20606226 68.52633832 27.56634192 68.90873247 33 68 C35.85248773 66.5578092 35.85248773 66.5578092 38 65 C38.99 65.33 39.98 65.66 41 66 C42.1875 69.0625 42.1875 69.0625 43 72 C36.58396979 75.9883431 31.48140096 76.7266477 24 76 C18.13529109 74.27508561 14.41862828 71.07910488 11 66 C8.55484761 60.10589581 6.96946441 54.21394928 5.5625 48 C3.79586055 40.25318336 3.79586055 40.25318336 1.7890625 32.56640625 C-1.24227085 21.64288276 -2.13164611 11.19114207 0 0 Z M0 8 C1 10 1 10 1 10 Z M1 12 C2 15 2 15 2 15 Z M2 16 C3 19 3 19 3 19 Z M4 24 C5 27 5 27 5 27 Z M11 53 C12 56 12 56 12 56 Z M12 57 C13 59 13 59 13 59 Z " fill="#1B1C1B" transform="translate(1,51)"/>
<path d="M0 0 C2.55178507 1.8847395 4.72126998 3.77190843 7 6 C7 6.66 7 7.32 7 8 C3.58147235 6.93171011 1.13445414 5.39619889 -1.625 3.1875 C-7.27565735 -1.18477669 -13.75567642 -5 -21 -5 C-21 -5.66 -21 -6.32 -21 -7 C-39.56415751 -7.49528879 -55.60160001 -6.35989251 -70.375 6.3125 C-79.88385556 15.44100133 -86.71803034 27.82761198 -87.203125 41.1875 C-87.35701643 50.93429495 -86.83426264 59.6030697 -84 69 C-84.99 68.67 -85.98 68.34 -87 68 C-93.09820251 52.74429606 -92.30281776 36.81696938 -85.9375 21.75 C-84.30224321 18.15112161 -84.30224321 18.15112161 -82 17 C-81.773125 16.29875 -81.54625 15.5975 -81.3125 14.875 C-79.41052196 10.70876239 -76.29528013 8.1075743 -73 5 C-72.36449219 4.33226562 -71.72898437 3.66453125 -71.07421875 2.9765625 C-51.15700004 -16.00293405 -21.68965357 -14.30364197 0 0 Z " fill="#7AA6CB" transform="translate(119,35)"/>
<path d="M0 0 C1.13112213 -0.00960754 2.26224426 -0.01921509 3.42764282 -0.02911377 C4.63923065 -0.03336365 5.85081848 -0.03761353 7.09912109 -0.04199219 C8.9755983 -0.0505423 8.9755983 -0.0505423 10.88998413 -0.05926514 C13.53102252 -0.06870058 16.17194763 -0.07560591 18.81298828 -0.07910156 C22.19703136 -0.08460656 25.58067621 -0.10869236 28.96459389 -0.13707352 C32.19690616 -0.16015453 35.42923792 -0.16214475 38.66162109 -0.16699219 C40.48507553 -0.18551239 40.48507553 -0.18551239 42.34536743 -0.20440674 C44.03259415 -0.19990509 44.03259415 -0.19990509 45.75390625 -0.1953125 C47.24019028 -0.20078094 47.24019028 -0.20078094 48.75650024 -0.20635986 C51.61873444 0.21589042 52.4931669 0.91973668 54.24755859 3.16113281 C53.45908539 3.15811661 52.67061218 3.1551004 51.85824585 3.1519928 C44.41330879 3.1297114 36.96952498 3.14098867 29.52474022 3.18959904 C25.69753459 3.21341468 21.87119842 3.22442818 18.04394531 3.20581055 C14.34753757 3.18830667 10.65268874 3.20491994 6.95647049 3.2448101 C5.54916698 3.25407665 4.14172781 3.25122134 2.734478 3.23582649 C-4.99767148 2.9286083 -4.99767148 2.9286083 -11.95027161 5.68722534 C-16.45091967 10.78503382 -17.98769543 16.60207208 -17.63916016 23.35644531 C-17.42027996 24.9702784 -17.09840614 26.56969504 -16.75244141 28.16113281 C-17.41244141 28.16113281 -18.07244141 28.16113281 -18.75244141 28.16113281 C-20.8925553 32.09852682 -22.35863837 36.26967321 -23.87744141 40.47363281 C-24.15458984 41.20775391 -24.43173828 41.941875 -24.71728516 42.69824219 C-26.40810779 47.3917326 -26.84185248 51.12217993 -26.75244141 56.16113281 C-27.41244141 56.82113281 -28.07244141 57.48113281 -28.75244141 58.16113281 C-29.08244141 59.15113281 -29.41244141 60.14113281 -29.75244141 61.16113281 C-30.41244141 61.16113281 -31.07244141 61.16113281 -31.75244141 61.16113281 C-32.16115032 54.32527589 -30.76540557 48.92012722 -28.56494141 42.47363281 C-28.27296875 41.55001953 -27.98099609 40.62640625 -27.68017578 39.67480469 C-25.85386707 34.21944382 -24.13374814 30.89444796 -19.75244141 27.16113281 C-18.41806304 25.00399325 -18.41806304 25.00399325 -19.43994141 21.72363281 C-20.24107871 16.02203227 -18.26214367 11.22012254 -15.75244141 6.16113281 C-11.21338101 0.34182461 -7.04977656 0.04850222 0 0 Z M-28.75244141 52.16113281 C-27.75244141 55.16113281 -27.75244141 55.16113281 -27.75244141 55.16113281 Z " fill="#171616" transform="translate(65.75244140625,37.8388671875)"/>
<path d="M0 0 C1.08925781 -0.06251953 2.17851563 -0.12503906 3.30078125 -0.18945312 C6.43518963 -0.25275513 9.0858402 -0.21810221 12.125 0.5625 C14.05215605 2.47207835 15.05951446 4.16941957 16.16455078 6.63696289 C17.09482547 8.90131058 17.09482547 8.90131058 20.125 10.5625 C13.525 10.5625 6.925 10.5625 0.125 10.5625 C0.125 10.2325 0.125 9.9025 0.125 9.5625 C-0.79023437 9.52511719 -1.70546875 9.48773438 -2.6484375 9.44921875 C-3.83695313 9.38347656 -5.02546875 9.31773438 -6.25 9.25 C-7.43335937 9.19199219 -8.61671875 9.13398437 -9.8359375 9.07421875 C-11.34027344 8.82091797 -11.34027344 8.82091797 -12.875 8.5625 C-14.875 5.5625 -14.875 5.5625 -14.875 1.5625 C-10.0226076 -0.05496413 -5.08297701 0.12841834 0 0 Z " fill="#3E81A7" transform="translate(110.875,42.4375)"/>
<path d="M0 0 C0.33 0 0.66 0 1 0 C1.33 12.21 1.66 24.42 2 37 C4.64 37.33 7.28 37.66 10 38 C10 38.33 10 38.66 10 39 C6 39 2 39 -2 39 C-3.70532323 40.94009522 -3.70532323 40.94009522 -5 43 C-4.67 43.66 -4.34 44.32 -4 45 C-7 44 -7 44 -8.66918945 41.90551758 C-10.34597284 38.24464819 -10.34102318 35.53227233 -10.29296875 31.51171875 C-10.28872391 30.80852005 -10.28447906 30.10532135 -10.28010559 29.3808136 C-10.2634006 27.14930869 -10.22576614 24.91872887 -10.1875 22.6875 C-10.17244248 21.1686329 -10.15875594 19.64975154 -10.14648438 18.13085938 C-10.11352473 14.42027566 -10.06180016 10.71022822 -10 7 C-9.67 7 -9.34 7 -9 7 C-8.67 12.94 -8.34 18.88 -8 25 C-7.030625 23.68 -6.06125 22.36 -5.0625 21 C-4.06853634 19.64651756 -3.0536394 18.30756357 -2 17 C-1.67 17 -1.34 17 -1 17 C-0.67 11.39 -0.34 5.78 0 0 Z " fill="#73A3C2" transform="translate(106,72)"/>
<path d="M0 0 C0.86625 0.804375 1.7325 1.60875 2.625 2.4375 C17.49859668 15.06206492 32.11380306 20.44434235 51.68359375 19.22314453 C62.02668902 18.22677132 70.37651722 13.46576629 79 8 C80.66444348 6.996304 82.33040485 5.99510291 84 5 C82.4114658 9.28904235 79.56872632 11.32345526 76 14 C75.34 14 74.68 14 74 14 C73.67 14.66 73.34 15.32 73 16 C71.09794515 16.94958865 69.15205846 17.81257074 67.1875 18.625 C66.12917969 19.07101563 65.07085937 19.51703125 63.98046875 19.9765625 C61 21 61 21 57 21 C56.67 21.66 56.34 22.32 56 23 C42.56526121 26.23477206 26.72537542 22.27948951 14.8125 15.8125 C8.98170454 12.05487626 4.15913048 7.54550731 0 2 C0 1.34 0 0.68 0 0 Z " fill="#7CAAD0" transform="translate(41,115)"/>
<path d="M0 0 C0.66 0.33 1.32 0.66 2 1 C3.52148326 1.08372659 5.04655778 1.10730027 6.5703125 1.09765625 C7.91416016 1.09282227 7.91416016 1.09282227 9.28515625 1.08789062 C10.69087891 1.07532227 10.69087891 1.07532227 12.125 1.0625 C13.54232422 1.05573242 13.54232422 1.05573242 14.98828125 1.04882812 C17.32558387 1.03702357 19.66276061 1.02055759 22 1 C21.4691268 4.82228705 20.65822091 7.17026897 18 10 C15.85522461 10.48583984 15.85522461 10.48583984 13.40234375 10.4609375 C12.51869141 10.45707031 11.63503906 10.45320313 10.72460938 10.44921875 C9.80486328 10.42472656 8.88511719 10.40023437 7.9375 10.375 C7.01388672 10.37371094 6.09027344 10.37242188 5.13867188 10.37109375 C-1.71907383 10.28092617 -1.71907383 10.28092617 -4 8 C-4.33 7.01 -4.66 6.02 -5 5 C-3.35 3.35 -1.7 1.7 0 0 Z " fill="#3D80A6" transform="translate(105,109)"/>
<path d="M0 0 C1.25167969 0.00257812 2.50335938 0.00515625 3.79296875 0.0078125 C5.03691406 0.00523438 6.28085938 0.00265625 7.5625 0 C10.26832877 0.10514077 12.4238123 0.32137998 14.98046875 1.1328125 C14.98046875 1.7928125 14.98046875 2.4528125 14.98046875 3.1328125 C22.90046875 3.1328125 30.82046875 3.1328125 38.98046875 3.1328125 C38.98046875 3.4628125 38.98046875 3.7928125 38.98046875 4.1328125 C35.56247113 4.9044304 32.41608725 5.25538516 28.91479492 5.24633789 C27.93415573 5.24626236 26.95351654 5.24618683 25.94316101 5.24610901 C24.89715225 5.24094772 23.85114349 5.23578644 22.7734375 5.23046875 C21.69290604 5.2290538 20.61237457 5.22763885 19.49909973 5.22618103 C16.05536099 5.2205933 12.61168777 5.208043 9.16796875 5.1953125 C6.83007907 5.19029592 4.49218836 5.18573329 2.15429688 5.18164062 C-3.57033478 5.17062788 -9.29492833 5.15390191 -15.01953125 5.1328125 C-15.32890625 6.2671875 -15.63828125 7.4015625 -15.95703125 8.5703125 C-17.01953125 12.1328125 -17.01953125 12.1328125 -18.01953125 13.1328125 C-20.01911489 13.17362033 -22.01998379 13.17535606 -24.01953125 13.1328125 C-24.34953125 12.4728125 -24.67953125 11.8128125 -25.01953125 11.1328125 C-19.04245802 5.55766827 -14.39750168 2.29811357 -6.171875 1.38671875 C-3.24136763 1.04101461 -3.24807523 0.14286489 0 0 Z " fill="#70A6C8" transform="translate(77.01953125,47.8671875)"/>
<path d="M0 0 C0.5534764 2.07553648 1 3.84365964 1 6 C3.64 5.01 6.28 4.02 9 3 C9.5939348 10.57266875 7.43286286 16.87518733 5 24 C2 24 -1 24 -4 24 C-5.34593782 19.61608826 -4.197864 16.29578814 -3 12 C-2.45333959 9.83458789 -1.9118532 7.66786436 -1.375 5.5 C-0.91666667 3.66666667 -0.45833333 1.83333333 0 0 Z " fill="#C3D6E2" transform="translate(81,86)"/>
<path d="M0 0 C5.94 0.33 11.88 0.66 18 1 C13.65290621 4.47767503 9.23499888 7.75236036 4.71875 11 C2.85243313 12.37292276 1.02002489 13.79278885 -0.78125 15.25 C-3 17 -3 17 -4 17 C-3.91227545 15.10333474 -3.80408699 13.20761007 -3.6875 11.3125 C-3.62949219 10.25675781 -3.57148437 9.20101562 -3.51171875 8.11328125 C-3 5 -3 5 0 0 Z " fill="#5190B6" transform="translate(55,43)"/>
<path d="M0 0 C3.3906569 2.26043793 3.75278368 3.25835104 5 7 C5.22300781 7.59554687 5.44601563 8.19109375 5.67578125 8.8046875 C6.12999326 11.88019534 5.19067739 13.87827573 4.0625 16.75 C3.68222656 17.73484375 3.30195312 18.7196875 2.91015625 19.734375 C2.60980469 20.48203125 2.30945313 21.2296875 2 22 C1 19 1 19 1 17 C-1.31 17.99 -3.62 18.98 -6 20 C-7.84488261 14.46535218 -5.70308278 8.66982159 -3.5 3.4375 C-2 1 -2 1 0 0 Z " fill="#DCE8EF" transform="translate(88,73)"/>
<path d="M0 0 C2.45862401 -0.05383848 4.9160755 -0.09359038 7.375 -0.125 C8.42300781 -0.15013672 8.42300781 -0.15013672 9.4921875 -0.17578125 C11.32897486 -0.19344267 13.16601963 -0.10303261 15 0 C17 2 17 2 17.22705078 4.61376953 C17.21657715 5.69255371 17.20610352 6.77133789 17.1953125 7.8828125 C17.18886719 9.04941406 17.18242188 10.21601562 17.17578125 11.41796875 C17.15902344 12.64128906 17.14226562 13.86460938 17.125 15.125 C17.11597656 16.35605469 17.10695313 17.58710937 17.09765625 18.85546875 C17.07402548 21.90383815 17.04108054 24.95182382 17 28 C16.67 28 16.34 28 16 28 C15.67 26.02 15.34 24.04 15 22 C12.525 25.465 12.525 25.465 10 29 C9 25 9 25 10.4375 22.4375 C12.79610716 17.24856426 12.86971197 11.32606063 11.421875 5.7890625 C11 4 11 4 12 2 C8.04 1.67 4.08 1.34 0 1 C0 0.67 0 0.34 0 0 Z " fill="#A1C3D8" transform="translate(89,68)"/>
<path d="M0 0 C0.66 0.99 1.32 1.98 2 3 C1.20860311 6.03368806 0.08422068 8.79880615 -1.125 11.6875 C-2.17694605 14.05555895 -2.17694605 14.05555895 -2 17 C-0.56249809 18.68798827 -0.56249809 18.68798827 1 20 C2.89213369 17.61426621 4.02391783 15.92824652 5 13 C5.66 13 6.32 13 7 13 C5.96886866 17.81194623 5.04965385 20.21275961 1 23.25 C-3.50543928 25.68846185 -8.01061546 25.36140411 -13 25 C-13 24.34 -13 23.68 -13 23 C-10.03 22.67 -7.06 22.34 -4 22 C-6.38957269 18.75700849 -8.2047869 16.49097658 -12 15 C-9.50907189 13.75453595 -8.58919267 14.2232422 -6 15 C-6 14.34 -6 13.68 -6 13 C-5.34 13 -4.68 13 -4 13 C-3.855625 12.071875 -3.71125 11.14375 -3.5625 10.1875 C-3 7 -3 7 -2 4 C-1.34 4 -0.68 4 0 4 C0 2.68 0 1.36 0 0 Z " fill="#1F6485" transform="translate(37,95)"/>
<path d="M0 0 C0.33 0 0.66 0 1 0 C1.33 5.94 1.66 11.88 2 18 C2.969375 16.68 3.93875 15.36 4.9375 14 C5.93146366 12.64651756 6.9463606 11.30756357 8 10 C8.33 10 8.66 10 9 10 C9.33 14.29 9.66 18.58 10 23 C9.34 22.34 8.68 21.68 8 21 C3.9957657 24.49087093 2.37328935 26.64951939 2 32 C1.34 32 0.68 32 0 32 C0 21.44 0 10.88 0 0 Z " fill="#8AADC4" transform="translate(96,79)"/>
<path d="M0 0 C8.58 0 17.16 0 26 0 C24.35 2.97 22.7 5.94 21 9 C21.66 9.33 22.32 9.66 23 10 C21.35 10 19.7 10 18 10 C17.67 10.66 17.34 11.32 17 12 C10.4 11.67 3.8 11.34 -3 11 C-3 10.67 -3 10.34 -3 10 C2.94 10 8.88 10 15 10 C17.12456822 5.88927269 17.12456822 5.88927269 19 1 C12.73 1 6.46 1 0 1 C0 0.67 0 0.34 0 0 Z " fill="#255F7D" transform="translate(108,109)"/>
<path d="M0 0 C2.99324263 1.0975223 3.84610901 1.67682892 5.25 4.625 C5.4975 5.40875 5.745 6.1925 6 7 C4.68 7 3.36 7 2 7 C2 6.34 2 5.68 2 5 C-0.91691525 4.94598305 -3.83282724 4.90631934 -6.75 4.875 C-7.575 4.85824219 -8.4 4.84148438 -9.25 4.82421875 C-10.04921875 4.81777344 -10.8484375 4.81132813 -11.671875 4.8046875 C-12.77160645 4.78897705 -12.77160645 4.78897705 -13.89355469 4.77294922 C-16.30848495 5.03325116 -17.84834173 5.90919164 -20 7 C-22.33203812 7.0777346 -24.66839059 7.08967728 -27 7 C-20.64136043 1.19428561 -12.72777451 0.6708387 -4.50390625 0.796875 C-2 1 -2 1 0 2 C0 1.34 0 0.68 0 0 Z " fill="#68A1C5" transform="translate(90,44)"/>
<path d="M0 0 C0.82638376 2.89234315 1 4.88742431 1 8 C4.465 7.505 4.465 7.505 8 7 C8.33 7.99 8.66 8.98 9 10 C7.5625 12.1875 7.5625 12.1875 6 14 C2.625 13.75 2.625 13.75 -1 13 C-2.4375 10.9375 -2.4375 10.9375 -3 9 C-3.7425 9.103125 -4.485 9.20625 -5.25 9.3125 C-8 9 -8 9 -10.3125 6.6875 C-12 4 -12 4 -12 1 C-11.34 1 -10.68 1 -10 1 C-9.773125 1.78375 -9.54625 2.5675 -9.3125 3.375 C-8.21875 6.21875 -8.21875 6.21875 -5.375 7.3125 C-4.59125 7.539375 -3.8075 7.76625 -3 8 C-3 7.34 -3 6.68 -3 6 C-2.34 6 -1.68 6 -1 6 C-0.67 4.02 -0.34 2.04 0 0 Z " fill="#7AA6C3" transform="translate(76,102)"/>
<path d="M0 0 C0.33 0.66 0.66 1.32 1 2 C3.64 2 6.28 2 9 2 C10.0326802 4.78823655 10.04509293 5.8677274 9.0625 8.75 C8.711875 9.4925 8.36125 10.235 8 11 C7.34 10.67 6.68 10.34 6 10 C4.00039988 9.960008 1.99952758 9.95653201 0 10 C-1.2380014 6.42355152 -0.74926071 3.66305234 0 0 Z " fill="#99C0D9" transform="translate(77,100)"/>
<path d="M0 0 C0.33 0 0.66 0 1 0 C1.50688605 2.54046458 2.00566874 5.08208876 2.5 7.625 C2.64308594 8.33785156 2.78617187 9.05070312 2.93359375 9.78515625 C3.56985815 13.08767149 3.9998477 16.01656293 3.96875 19.3984375 C3.69904291 22.16475132 3.69904291 22.16475132 6 24 C5.67028521 27.29714793 5.3773161 28.6226839 3 31 C-0.48412436 20.20543614 -1.95408888 11.23601106 0 0 Z M0 8 C1 10 1 10 1 10 Z M1 12 C2 15 2 15 2 15 Z M2 16 C3 19 3 19 3 19 Z M4 24 C5 27 5 27 5 27 Z " fill="#202527" transform="translate(1,51)"/>
<path d="M0 0 C0.33 0.99 0.66 1.98 1 3 C2.32 2.34 3.64 1.68 5 1 C4.6875 2.875 4.6875 2.875 4 5 C3.01 5.66 2.02 6.32 1 7 C0.65458149 9.33157492 0.32205743 11.66508361 0 14 C-1.5 16.1875 -1.5 16.1875 -3 18 C-3.70514846 20.14733927 -3.70514846 20.14733927 -4 22 C-4.33 22 -4.66 22 -5 22 C-5.29105568 16.40445447 -4.37632274 12.22999426 -2.5 7.0625 C-2.26152344 6.37865234 -2.02304687 5.69480469 -1.77734375 4.99023438 C-1.19454118 3.32341903 -0.59862949 1.66119684 0 0 Z " fill="#4C86A9" transform="translate(44,72)"/>
<path d="M0 0 C1.98 0 3.96 0 6 0 C6.67154933 1.28913487 7.33708859 2.58140204 8 3.875 C8.37125 4.59429687 8.7425 5.31359375 9.125 6.0546875 C10 8 10 8 10 10 C11.32 10.66 12.64 11.32 14 12 C8.01345291 12 8.01345291 12 5.234375 9.2578125 C2.9438421 6.22230046 1.20818742 3.62456226 0 0 Z " fill="#1B6081" transform="translate(123,43)"/>
<path d="M0 0 C2.61394384 3.92091575 1.77446552 6.61136206 1 11 C0.855625 11.9075 0.71125 12.815 0.5625 13.75 C-0.01348034 16.05392135 -0.84945907 17.92902633 -2 20 C-2.66 20 -3.32 20 -4 20 C-4.5644718 12.66186666 -2.55327104 6.83911885 0 0 Z M-1 11 C0 14 0 14 0 14 Z " fill="#1B1E20" transform="translate(38,79)"/>
<path d="M0 0 C1.216875 0.01546875 2.43375 0.0309375 3.6875 0.046875 C6.31409984 0.20794008 8.50411508 0.47627567 11 1.25 C11 1.91 11 2.57 11 3.25 C3.74 3.25 -3.52 3.25 -11 3.25 C-6.52656898 -0.10507326 -5.36920968 -0.11375444 0 0 Z " fill="#78AACA" transform="translate(81,47.75)"/>
<path d="M0 0 C0.33 0 0.66 0 1 0 C1.0810206 2.10353495 1.13919907 4.20795952 1.1875 6.3125 C1.22230469 7.48425781 1.25710937 8.65601562 1.29296875 9.86328125 C1 13 1 13 -0.38671875 14.91796875 C-2 16 -2 16 -4 16 C-3.47606294 10.13190493 -2.23891142 5.45126259 0 0 Z " fill="#252524" transform="translate(95,79)"/>
<path d="M0 0 C0.66 0 1.32 0 2 0 C2.226875 0.804375 2.45375 1.60875 2.6875 2.4375 C3.7433787 5.24163187 3.7433787 5.24163187 6.5 5.8125 C8.91456287 6.02492998 8.91456287 6.02492998 11 6 C11.33 6.66 11.66 7.32 12 8 C14.02463255 8.65213292 14.02463255 8.65213292 16 9 C15.67 9.99 15.34 10.98 15 12 C13.35 11.67 11.7 11.34 10 11 C9.67 10.01 9.34 9.02 9 8 C8.2575 8.103125 7.515 8.20625 6.75 8.3125 C4 8 4 8 1.6875 5.6875 C0 3 0 3 0 0 Z " fill="#80B3D4" transform="translate(64,103)"/>
<path d="M0 0 C0.33 0 0.66 0 1 0 C1.41176754 3.60296594 1.1535853 4.78402067 -1 7.8125 C-1.66 8.534375 -2.32 9.25625 -3 10 C-2.67 10.66 -2.34 11.32 -2 12 C-5 11 -5 11 -6.25 8.5625 C-7 6 -7 6 -6 4 C-4.35178756 2.96986723 -2.68496298 1.96885372 -1 1 C-0.67 0.67 -0.34 0.34 0 0 Z " fill="#6AA2C7" transform="translate(104,105)"/>
<path d="M0 0 C0.63615234 0.56267578 0.63615234 0.56267578 1.28515625 1.13671875 C5.36517338 4.69664579 9.5513476 7.91317997 14 11 C13.01 11.99 12.02 12.98 11 14 C7.11807874 10.23225289 3.20468119 6.37202211 0 2 C0 1.34 0 0.68 0 0 Z " fill="#78A4C5" transform="translate(41,115)"/>
<path d="M0 0 C6.96327638 -0.33693273 12.43345544 0.6969113 19 3 C15.90521121 4.03159626 14.47368607 3.97482862 11.3125 3.5625 C10.50425781 3.46066406 9.69601563 3.35882813 8.86328125 3.25390625 C8.24839844 3.17011719 7.63351563 3.08632813 7 3 C7 3.66 7 4.32 7 5 C5.35 5 3.7 5 2 5 C1.34 3.35 0.68 1.7 0 0 Z " fill="#171717" transform="translate(124,38)"/>
<path d="M0 0 C-0.66 1.98 -1.32 3.96 -2 6 C-2.33 5.34 -2.66 4.68 -3 4 C-3.78375 4.185625 -4.5675 4.37125 -5.375 4.5625 C-8 5 -8 5 -10 4 C-10 3.01 -10 2.02 -10 1 C-8.71073008 0.63720544 -7.41846728 0.28503302 -6.125 -0.0625 C-5.40570313 -0.25972656 -4.68640625 -0.45695312 -3.9453125 -0.66015625 C-2 -1 -2 -1 0 0 Z " fill="#B5D1E3" transform="translate(89,98)"/>
<path d="M0 0 C0.66 0.99 1.32 1.98 2 3 C-3.18678815 11.44646925 -3.18678815 11.44646925 -6 15 C-7.0326802 12.21176345 -7.04509293 11.1322726 -6.0625 8.25 C-5.711875 7.5075 -5.36125 6.765 -5 6 C-4.34 6 -3.68 6 -3 6 C-2.690625 5.195625 -2.38125 4.39125 -2.0625 3.5625 C-1 1 -1 1 0 0 Z " fill="#739CBD" transform="translate(40,46)"/>
<path d="M0 0 C0 0.33 0 0.66 0 1 C-2.31 1 -4.62 1 -7 1 C-7 1.66 -7 2.32 -7 3 C-8.98260426 4.68732277 -10.9832342 6.35366057 -13 8 C-13.33 8.66 -13.66 9.32 -14 10 C-14.66 10 -15.32 10 -16 10 C-15.70179167 6.42150008 -15.25754642 5.23773516 -12.5625 2.75 C-8.03252139 -0.34364393 -5.41338706 -0.08731269 0 0 Z " fill="#184B63" transform="translate(18,42)"/>
<path d="M0 0 C0.66 0.99 1.32 1.98 2 3 C1.25 5.875 1.25 5.875 0 9 C-0.37125 9.94875 -0.7425 10.8975 -1.125 11.875 C-1.41375 12.57625 -1.7025 13.2775 -2 14 C-3.32 14 -4.64 14 -6 14 C-5.34 13.67 -4.68 13.34 -4 13 C-3.61067967 11.01014051 -3.28112064 9.00800456 -3 7 C-2.67 6.01 -2.34 5.02 -2 4 C-1.34 4 -0.68 4 0 4 C0 2.68 0 1.36 0 0 Z " fill="#336B8A" transform="translate(37,95)"/>
<path d="M0 0 C0 3 0 3 -1.4609375 4.60546875 C-2.09257813 5.12753906 -2.72421875 5.64960937 -3.375 6.1875 C-4.00148438 6.71730469 -4.62796875 7.24710937 -5.2734375 7.79296875 C-7 9 -7 9 -9 9 C-9.33 9.66 -9.66 10.32 -10 11 C-10.66 11 -11.32 11 -12 11 C-12 10.01 -12 9.02 -12 8 C-9.375 5.95703125 -9.375 5.95703125 -6 3.8125 C-5.42765625 3.44447266 -4.8553125 3.07644531 -4.265625 2.69726562 C-2.84975538 1.78874929 -1.42562203 0.89313523 0 0 Z " fill="#729CBA" transform="translate(124,120)"/>
<path d="M0 0 C8.57142857 -0.28571429 8.57142857 -0.28571429 12 2 C11.34 2 10.68 2 10 2 C10 2.66 10 3.32 10 4 C6.37 3.67 2.74 3.34 -1 3 C-0.67 2.01 -0.34 1.02 0 0 Z " fill="#7DAAD1" transform="translate(84,24)"/>
<path d="M0 0 C1.98384711 3.96769422 1.32630565 8.85529486 0 13 C-0.66 13 -1.32 13 -2 13 C-2.33 13.66 -2.66 14.32 -3 15 C-4.79924513 9.92940008 -2.97953776 5.74305086 -1 1 C-0.67 0.67 -0.34 0.34 0 0 Z M-1 5 C0 8 0 8 0 8 Z M-2 8 C-1 12 -1 12 -1 12 Z " fill="#272F33" transform="translate(51,46)"/>
<path d="M0 0 C0.33 0.99 0.66 1.98 1 3 C2.32 2.34 3.64 1.68 5 1 C4.52723148 5.25491665 2.07452523 7.22542845 -1 10 C-1.99 10.495 -1.99 10.495 -3 11 C-2.01 7.37 -1.02 3.74 0 0 Z " fill="#52809D" transform="translate(44,72)"/>
<path d="M0 0 C1.62418745 -0.08090971 3.24951745 -0.13914995 4.875 -0.1875 C5.77992187 -0.22230469 6.68484375 -0.25710937 7.6171875 -0.29296875 C8.79667969 -0.14794922 8.79667969 -0.14794922 10 0 C10.66 0.99 11.32 1.98 12 3 C7.83861737 3.08159574 4.0527516 2.98248524 0 2 C0 1.34 0 0.68 0 0 Z " fill="#80AED6" transform="translate(72,135)"/>
<path d="M0 0 C4.56749627 1.86083181 7.88579746 5.03688123 10.3125 9.3125 C10.6528125 10.1478125 10.6528125 10.1478125 11 11 C5.87220625 8.01872456 3.24730231 4.96646236 0 0 Z " fill="#121212" transform="translate(148,44)"/>
<path d="M0 0 C1.32 0.33 2.64 0.66 4 1 C4 1.66 4 2.32 4 3 C5.32 3.33 6.64 3.66 8 4 C7.67 4.99 7.34 5.98 7 7 C4.13302508 5.71480435 2.02392288 4.42870746 0 2 C0 1.34 0 0.68 0 0 Z " fill="#5490B6" transform="translate(57,111)"/>
<path d="M0 0 C3.43752007 1.5277867 6.18953688 3.50181056 9 6 C9 6.66 9 7.32 9 8 C5.56801397 6.76067171 2.69674368 5.49698489 0 3 C0 2.01 0 1.02 0 0 Z " fill="#75A0BF" transform="translate(117,35)"/>
<path d="M0 0 C3.48539917 0.64544429 6.02819057 2.10134397 9 4 C8.67 4.99 8.34 5.98 8 7 C5.03 5.35 2.06 3.7 -1 2 C-0.67 1.34 -0.34 0.68 0 0 Z " fill="#80AFD7" transform="translate(108,30)"/>
<path d="M0 0 C4.17882671 2.56428003 7.12505529 5.01930733 10 9 C7.03824877 8.38722388 5.61941217 7.74627478 3 6 C3 5.34 3 4.68 3 4 C2.34 4 1.68 4 1 4 C0.67 2.68 0.34 1.36 0 0 Z " fill="#111111" transform="translate(54,116)"/>
<path d="M0 0 C0.6875 1.75 0.6875 1.75 1 4 C-0.3125 6.25 -0.3125 6.25 -2 8 C-2.66 8 -3.32 8 -4 8 C-4 6.02 -4 4.04 -4 2 C-2.68 1.34 -1.36 0.68 0 0 Z M-2 4 C-1 6 -1 6 -1 6 Z " fill="#323639" transform="translate(79,92)"/>
<path d="M0 0 C2 3 2 3 1.75 6.625 C1.5025 7.73875 1.255 8.8525 1 10 C0.01 10.495 0.01 10.495 -1 11 C-1.0270043 9.54176788 -1.04639787 8.08339325 -1.0625 6.625 C-1.07410156 5.81289062 -1.08570312 5.00078125 -1.09765625 4.1640625 C-1 2 -1 2 0 0 Z " fill="#82B2DB" transform="translate(29,73)"/>
<path d="M0 0 C-1.5830577 4.2742558 -4.50568404 6.26531794 -8 9 C-7.53918323 4.85264908 -4.48412936 0 0 0 Z " fill="#81B2DA" transform="translate(49,39)"/>
<path d="M0 0 C-1.16290805 3.48872415 -2.13967609 4.09976864 -5.0625 6.1875 C-5.79597656 6.71730469 -6.52945313 7.24710938 -7.28515625 7.79296875 C-7.85105469 8.19128906 -8.41695312 8.58960938 -9 9 C-7.26653013 5.24414862 -4.57230154 0 0 0 Z " fill="#609CC2" transform="translate(62,50)"/>
<path d="M0 0 C2.6855594 2.6855594 3.06049974 5.37621328 4 9 C2.68 7.68 1.36 6.36 0 5 C-0.99 5.99 -1.98 6.98 -3 8 C-1.125 2.25 -1.125 2.25 0 0 Z " fill="#0B0A0A" transform="translate(92,111)"/>
<path d="M0 0 C0.66 0.66 1.32 1.32 2 2 C2.99 1.67 3.98 1.34 5 1 C3.25 6.75 3.25 6.75 1 9 C0.67 6.03 0.34 3.06 0 0 Z " fill="#171717" transform="translate(5,88)"/>
<path d="M0 0 C1.231394 3.69418201 0.64432764 6.2056261 0 10 C-0.66 10 -1.32 10 -2 10 C-2.33 10.66 -2.66 11.32 -3 12 C-2.69106068 10.3743193 -2.3777305 8.74947252 -2.0625 7.125 C-1.88847656 6.22007813 -1.71445313 5.31515625 -1.53515625 4.3828125 C-1 2 -1 2 0 0 Z " fill="#131312" transform="translate(82,72)"/>
<path d="M0 0 C0 0.99 0 1.98 0 3 C-2.64 3 -5.28 3 -8 3 C-7.67 2.01 -7.34 1.02 -7 0 C-2.25 -1.125 -2.25 -1.125 0 0 Z " fill="#759EC1" transform="translate(97,135)"/>
<path d="M0 0 C0 3.51716303 -0.82445585 4.37121748 -3 7 C-2.67 7.66 -2.34 8.32 -2 9 C-2.99 8.67 -3.98 8.34 -5 8 C-4.64950425 4.75791433 -4.43778819 3.38472296 -1.9375 1.1875 C-1.298125 0.795625 -0.65875 0.40375 0 0 Z " fill="#5C9BC2" transform="translate(104,108)"/>
<path d="M0 0 C0.33 0.66 0.66 1.32 1 2 C3.02463255 2.65213292 3.02463255 2.65213292 5 3 C5 3.66 5 4.32 5 5 C3.35 5.33 1.7 5.66 0 6 C0 4.02 0 2.04 0 0 Z " fill="#A8C8DC" transform="translate(77,100)"/>
<path d="M0 0 C1.2065625 0.0309375 1.2065625 0.0309375 2.4375 0.0625 C0.81410195 1.77134005 -0.85569053 3.43696717 -2.5625 5.0625 C-3.2225 5.0625 -3.8825 5.0625 -4.5625 5.0625 C-3.43829114 0.08386076 -3.43829114 0.08386076 0 0 Z " fill="#191919" transform="translate(55.5625,39.9375)"/>
<path d="M0 0 C0.625 1.8125 0.625 1.8125 1 4 C0.01 5.485 0.01 5.485 -1 7 C-3.625 7.1875 -3.625 7.1875 -6 7 C-5.01 6.67 -4.02 6.34 -3 6 C-2.67 5.01 -2.34 4.02 -2 3 C-1.34 3 -0.68 3 0 3 C0 2.01 0 1.02 0 0 Z " fill="#80B5D8" transform="translate(60,54)"/>
<path d="" fill="#0B0A0A" transform="translate(0,0)"/>
</svg>
